<svg width="40" height="41" viewBox="0 0 40 41" fill="none" xmlns="http://www.w3.org/2000/svg">
<mask id="mask0_190_3946" style="mask-type:alpha" maskUnits="userSpaceOnUse" x="0" y="0" width="40" height="41">
<rect y="0.64502" width="40" height="40" fill="#D9D9D9"/>
</mask>
<g mask="url(#mask0_190_3946)">
<path d="M7.97084 29.3408C6.36778 27.7175 5.13098 25.8757 4.26042 23.8154C3.38987 21.7548 2.95459 19.5869 2.95459 17.3116C2.95459 15.0364 3.38653 12.8668 4.25042 10.8029C5.11431 8.73928 6.35445 6.89914 7.97084 5.28247L10.1604 7.47205C8.84153 8.79094 7.82292 10.2972 7.10459 11.9908C6.38626 13.6847 6.02709 15.4583 6.02709 17.3116C6.02709 19.165 6.38626 20.9386 7.10459 22.6325C7.82292 24.3261 8.84153 25.8323 10.1604 27.1512L7.97084 29.3408ZM11.9738 25.3379C10.9049 24.269 10.086 23.044 9.51709 21.6629C8.9482 20.2821 8.66376 18.8316 8.66376 17.3116C8.66376 15.7916 8.9482 14.3412 9.51709 12.9604C10.086 11.5793 10.9049 10.3543 11.9738 9.28539L14.1429 11.4546C13.3507 12.2471 12.7532 13.1469 12.3504 14.1541C11.9476 15.1614 11.7463 16.2139 11.7463 17.3116C11.7463 18.4094 11.9476 19.4619 12.3504 20.4691C12.7532 21.4764 13.3507 22.3762 14.1429 23.1687L11.9738 25.3379ZM18.1042 35.8741V21.2846C17.3475 20.9179 16.7417 20.3758 16.2867 19.6583C15.8317 18.9405 15.6042 18.1583 15.6042 17.3116C15.6042 16.0852 16.0301 15.0459 16.8821 14.1937C17.7343 13.3418 18.7736 12.9158 20 12.9158C21.2264 12.9158 22.2657 13.3418 23.1179 14.1937C23.9699 15.0459 24.3958 16.0852 24.3958 17.3116C24.3958 18.1583 24.1683 18.9405 23.7133 19.6583C23.2583 20.3758 22.6525 20.9179 21.8958 21.2846V35.8741H18.1042ZM28.0263 25.3379L25.8571 23.1687C26.6493 22.3762 27.2468 21.4764 27.6496 20.4691C28.0524 19.4619 28.2538 18.4094 28.2538 17.3116C28.2538 16.2139 28.0524 15.1614 27.6496 14.1541C27.2468 13.1469 26.6493 12.2471 25.8571 11.4546L28.0263 9.28539C29.0951 10.3543 29.9107 11.5793 30.4729 12.9604C31.0351 14.3412 31.3229 15.7916 31.3363 17.3116C31.3493 18.8316 31.0699 20.2805 30.4979 21.6583C29.9257 23.0358 29.1018 24.2623 28.0263 25.3379ZM32.0292 29.3408L29.8396 27.1512C31.1585 25.8323 32.1771 24.3261 32.8954 22.6325C33.6138 20.9386 33.9729 19.165 33.9729 17.3116C33.9729 15.4583 33.6138 13.6847 32.8954 11.9908C32.1771 10.2972 31.1585 8.79094 29.8396 7.47205L32.0092 5.28247C33.6256 6.89914 34.869 8.73928 35.7396 10.8029C36.6101 12.8668 37.0454 15.0364 37.0454 17.3116C37.0454 19.5869 36.6101 21.7548 35.7396 23.8154C34.869 25.8757 33.6322 27.7175 32.0292 29.3408Z" fill="#0B0B0B"/>
</g>
</svg>
