<svg width="40" height="41" viewBox="0 0 40 41" fill="none" xmlns="http://www.w3.org/2000/svg">
<mask id="mask0_190_3949" style="mask-type:alpha" maskUnits="userSpaceOnUse" x="0" y="0" width="40" height="41">
<rect y="0.64502" width="40" height="40" fill="#D9D9D9"/>
</mask>
<g mask="url(#mask0_190_3949)">
<path d="M4.66125 35.9837V25.6449H8.45292V32.192H15V35.9837H4.66125ZM25 35.9837V32.192H31.5471V25.6449H35.3388V35.9837H25ZM4.66125 15.6449V5.30615H15V9.09782H8.45292V15.6449H4.66125ZM31.5471 15.6449V9.09782H25V5.30615H35.3388V15.6449H31.5471ZM19.9979 27.5707C18.0929 27.5707 16.4628 26.8924 15.1075 25.5357C13.7519 24.1791 13.0742 22.5481 13.0742 20.6428C13.0742 18.7378 13.7525 17.1077 15.1092 15.7524C16.4658 14.3968 18.0968 13.7191 20.0021 13.7191C21.9071 13.7191 23.5372 14.3974 24.8925 15.7541C26.2481 17.1107 26.9258 18.7417 26.9258 20.647C26.9258 22.552 26.2475 24.1821 24.8908 25.5374C23.5342 26.893 21.9032 27.5707 19.9979 27.5707ZM20.0017 23.7791C20.8642 23.7791 21.6018 23.472 22.2146 22.8578C22.8276 22.2437 23.1342 21.5055 23.1342 20.6432C23.1342 19.7807 22.8271 19.0431 22.2129 18.4303C21.5988 17.8173 20.8606 17.5107 19.9983 17.5107C19.1358 17.5107 18.3982 17.8178 17.7854 18.432C17.1724 19.0462 16.8658 19.7843 16.8658 20.6466C16.8658 21.5091 17.1729 22.2467 17.7871 22.8595C18.4013 23.4725 19.1394 23.7791 20.0017 23.7791Z" fill="#0B0B0B"/>
</g>
</svg>
