<svg width="48" height="48" viewBox="0 0 48 48" fill="none" xmlns="http://www.w3.org/2000/svg">
<g id="Frame 26085680">
<g id="Group 1171275393">
<path id="Union" d="M20.4688 12.6973L20.4687 7.99998L27.9794 7.99998L27.9794 12.6973L24.2241 12.6973L20.4688 12.6973Z" fill="#FF5E2A"/>
<path id="Union_2" d="M35.75 20.4667L40.4473 20.4667L40.4473 27.9773L35.75 27.9773L35.75 24.222L35.75 20.4667Z" fill="#FF5E2A"/>
<path id="Union_3" d="M29.7109 13.417L33.0324 10.0955L38.3433 15.4063L35.0218 18.7278L32.3664 16.0724L29.7109 13.417Z" fill="#FF5E2A"/>
<path id="Union_4" d="M35.2109 29.7158L38.5324 33.0373L33.2216 38.3481L29.9001 35.0267L32.5555 32.3712L35.2109 29.7158Z" fill="#FF5E2A"/>
<path id="Union_5" d="M20.4688 40.4442L20.4687 35.7469L27.9794 35.7469L27.9794 40.4442L24.2241 40.4442L20.4688 40.4442Z" fill="#FF5E2A"/>
<path id="Union_6" d="M8 20.4667L12.6973 20.4667L12.6973 27.9773L8 27.9773L8 24.222L8 20.4667Z" fill="#FF5E2A"/>
<path id="Union_7" d="M10.0938 33.0371L13.4152 29.7156L18.7261 35.0265L15.4046 38.3479L12.7492 35.6925L10.0938 33.0371Z" fill="#FF5E2A"/>
<path id="Union_8" d="M15.5938 10.0957L18.9152 13.4172L13.6044 18.728L10.2829 15.4065L12.9383 12.7511L15.5938 10.0957Z" fill="#FF5E2A"/>
<path id="Union_9" fill-rule="evenodd" clip-rule="evenodd" d="M31.2036 21.2837L28.6484 18.7285L24.3233 23.0536L22.5509 24.826L19.7911 22.0663L17.2344 24.623L19.8898 27.2784L22.5452 29.9338L22.5493 29.9298L22.5534 29.9339L31.2036 21.2837Z" fill="#FF5E2A"/>
<circle id="Ellipse 1354" cx="24.4125" cy="24.2222" r="12.1838" stroke="#FF5E2A" stroke-width="3.37926"/>
</g>
</g>
</svg>
