<svg width="48" height="48" viewBox="0 0 48 48" fill="none" xmlns="http://www.w3.org/2000/svg">
<g id="Frame 26085680">
<g id="Group 1171275457">
<path id="Union" d="M32.6329 17.4814L31.5535 21.5095L38.3342 23.3266L39.4137 19.2985L32.6329 17.4814Z" fill="#FF5E2A"/>
<path id="Union_2" d="M30.453 21.9863L27.1224 24.4959L31.3386 30.0914L34.6692 27.5818L30.453 21.9863Z" fill="#FF5E2A"/>
<path id="Union_3" d="M19.4532 24.4659L16.1228 21.9561L11.8827 27.5825L15.2131 30.0923L19.4532 24.4659Z" fill="#FF5E2A"/>
<path id="Union_4" d="M21.2267 31.1466L25.3969 31.1467L25.3971 24.0681L21.2269 24.068L21.2267 31.1466Z" fill="#FF5E2A"/>
<path id="Union_5" d="M8.36731 19.2997L9.44654 23.3279L16.2286 21.5108L15.1494 17.4827L8.36731 19.2997Z" fill="#FF5E2A"/>
<path id="Subtract" fill-rule="evenodd" clip-rule="evenodd" d="M23.8809 22.9883C28.1039 22.9883 31.5273 19.5648 31.5273 15.3418H35.3621C35.3621 16.7084 35.1181 18.0629 34.6428 19.3418C34.5937 19.4739 34.5421 19.6053 34.4881 19.7357C33.911 21.1287 33.0653 22.3945 31.9991 23.4607C30.9329 24.5269 29.6672 25.3726 28.2741 25.9496C26.8811 26.5266 25.3881 26.8236 23.8802 26.8236C22.3724 26.8236 20.8794 26.5266 19.4863 25.9496C18.0933 25.3726 16.8276 24.5268 15.7614 23.4607C14.6952 22.3945 13.8495 21.1287 13.2724 19.7357C13.2184 19.6052 13.1668 19.4739 13.1177 19.3418C12.6424 18.0629 12.3984 16.7084 12.3984 15.3418H16.2344C16.2344 19.5648 19.6578 22.9883 23.8809 22.9883Z" fill="#FF5E2A"/>
</g>
</g>
</svg>
