<svg width="364" height="310" viewBox="0 0 364 310" fill="none" xmlns="http://www.w3.org/2000/svg">
<path d="M37.2034 274.151H89.4926L101.559 262.569V210.279H49.2701L37.2034 221.861V274.151Z" fill="white" stroke="black"/>
<rect x="37.2035" y="221.766" width="52.2892" height="52.2892" fill="white" stroke="black" stroke-linejoin="bevel"/>
<path d="M25.1351 285.637H77.4244L89.4911 274.055V221.766H37.2019L25.1351 233.348V285.637Z" fill="white" stroke="black"/>
<rect x="25.1352" y="233.253" width="52.2892" height="52.2892" fill="white" stroke="black" stroke-linejoin="bevel"/>
<path d="M13.0669 297.124H65.3561L77.4229 285.542V233.253H25.1336L13.0669 244.835V297.124Z" fill="white" stroke="black"/>
<rect x="13.0669" y="244.74" width="52.2892" height="52.2892" fill="white" stroke="black" stroke-linejoin="bevel"/>
<path d="M1 308.611H53.2892L65.356 297.029V244.74H13.0667L1 256.322V308.611Z" fill="white" stroke="black"/>
<rect x="1" y="256.227" width="52.2892" height="52.2892" fill="white" stroke="black" stroke-linejoin="bevel"/>
<path d="M89.4939 274.151H141.783L153.85 262.569V210.279H101.561L89.4939 221.861V274.151Z" fill="white" stroke="black"/>
<rect x="89.4939" y="221.766" width="52.2892" height="52.2892" fill="white" stroke="black" stroke-linejoin="bevel"/>
<path d="M141.779 274.151H194.068L206.135 262.569V210.279H153.846L141.779 221.861V274.151Z" fill="white" stroke="black"/>
<rect x="141.779" y="221.766" width="52.2892" height="52.2892" fill="white" stroke="black" stroke-linejoin="bevel"/>
<path d="M194.068 274.151H246.357L258.423 262.569V210.279H206.134L194.068 221.861V274.151Z" fill="white" stroke="black"/>
<rect x="194.067" y="221.766" width="52.2892" height="52.2892" fill="white" stroke="black" stroke-linejoin="bevel"/>
<path d="M77.4258 285.637H129.715L141.782 274.055V221.766H89.4925L77.4258 233.348V285.637Z" fill="white" stroke="black"/>
<rect x="77.4258" y="233.253" width="52.2892" height="52.2892" fill="white" stroke="black" stroke-linejoin="bevel"/>
<path d="M129.714 285.637H182.004L194.07 274.055V221.766H141.781L129.714 233.348V285.637Z" fill="white" stroke="black"/>
<rect x="129.714" y="233.253" width="52.2892" height="52.2892" fill="white" stroke="black" stroke-linejoin="bevel"/>
<path d="M182.005 285.637H234.294L246.361 274.055V221.766H194.072L182.005 233.348V285.637Z" fill="white" stroke="black"/>
<rect x="182.005" y="233.253" width="52.2892" height="52.2892" fill="white" stroke="black" stroke-linejoin="bevel"/>
<path d="M65.3575 297.124H117.647L129.714 285.542V233.253H77.4243L65.3575 244.835V297.124Z" fill="white" stroke="black"/>
<rect x="65.3575" y="244.74" width="52.2892" height="52.2892" fill="white" stroke="black" stroke-linejoin="bevel"/>
<path d="M53.2905 308.611H105.58L117.646 297.029V244.74H65.3573L53.2905 256.322V308.611Z" fill="white" stroke="black"/>
<rect x="53.2906" y="256.227" width="52.2892" height="52.2892" fill="white" stroke="black" stroke-linejoin="bevel"/>
<path d="M117.646 297.124H169.935L182.002 285.542V233.253H129.713L117.646 244.835V297.124Z" fill="white" stroke="black"/>
<rect x="117.646" y="244.74" width="52.2892" height="52.2892" fill="white" stroke="black" stroke-linejoin="bevel"/>
<path d="M105.579 308.611H157.868L169.935 297.029V244.74H117.646L105.579 256.322V308.611Z" fill="white" stroke="black"/>
<rect x="105.579" y="256.227" width="52.2892" height="52.2892" fill="white" stroke="black" stroke-linejoin="bevel"/>
<path d="M169.939 297.124H222.228L234.295 285.542V233.253H182.005L169.939 244.835V297.124Z" fill="white" stroke="black"/>
<rect x="169.939" y="244.74" width="52.2892" height="52.2892" fill="white" stroke="black" stroke-linejoin="bevel"/>
<path d="M157.872 308.611H210.161L222.228 297.029V244.74H169.938L157.872 256.322V308.611Z" fill="white" stroke="black"/>
<rect x="157.872" y="256.227" width="52.2892" height="52.2892" fill="white" stroke="black" stroke-linejoin="bevel"/>
<path d="M246.36 274.151H298.649L310.716 262.569V210.279H258.427L246.36 221.861V274.151Z" fill="white" stroke="black"/>
<rect x="246.36" y="221.766" width="52.2892" height="52.2892" fill="white" stroke="black" stroke-linejoin="bevel"/>
<path d="M298.643 274.151H350.932L362.999 262.569V210.279H310.71L298.643 221.861V274.151Z" fill="white" stroke="black"/>
<rect x="298.643" y="221.766" width="52.2892" height="52.2892" fill="white" stroke="black" stroke-linejoin="bevel"/>
<path d="M234.292 285.637H286.581L298.648 274.055V221.766H246.358L234.292 233.348V285.637Z" fill="white" stroke="black"/>
<rect x="234.292" y="233.253" width="52.2892" height="52.2892" fill="white" stroke="black" stroke-linejoin="bevel"/>
<path d="M286.579 285.637H338.868L350.935 274.055V221.766H298.645L286.579 233.348V285.637Z" fill="white" stroke="black"/>
<rect x="286.579" y="233.253" width="52.2892" height="52.2892" fill="white" stroke="black" stroke-linejoin="bevel"/>
<path d="M222.227 297.124H274.517L286.583 285.542V233.253H234.294L222.227 244.835V297.124Z" fill="white" stroke="black"/>
<rect x="222.227" y="244.74" width="52.2892" height="52.2892" fill="white" stroke="black" stroke-linejoin="bevel"/>
<path d="M210.16 308.611H262.45L274.516 297.029V244.74H222.227L210.16 256.322V308.611Z" fill="white" stroke="black"/>
<rect x="210.16" y="256.227" width="52.2892" height="52.2892" fill="white" stroke="black" stroke-linejoin="bevel"/>
<path d="M274.512 297.124H326.802L338.868 285.542V233.253H286.579L274.512 244.835V297.124Z" fill="white" stroke="black"/>
<rect x="274.512" y="244.74" width="52.2892" height="52.2892" fill="white" stroke="black" stroke-linejoin="bevel"/>
<path d="M262.445 308.611H314.735L326.801 297.029V244.74H274.512L262.445 256.322V308.611Z" fill="white" stroke="black"/>
<rect x="262.445" y="256.227" width="52.2892" height="52.2892" fill="white" stroke="black" stroke-linejoin="bevel"/>
<path d="M37.2034 221.766H89.4926L101.559 210.184V157.895H49.2701L37.2034 169.477V221.766Z" fill="white" stroke="black"/>
<rect x="37.2035" y="169.381" width="52.2892" height="52.2892" fill="white" stroke="black" stroke-linejoin="bevel"/>
<path d="M25.1351 233.253H77.4244L89.4911 221.671V169.381H37.2019L25.1351 180.964V233.253Z" fill="white" stroke="black"/>
<rect x="25.1352" y="180.868" width="52.2892" height="52.2892" fill="white" stroke="black" stroke-linejoin="bevel"/>
<path d="M13.0669 244.74H65.3561L77.4229 233.158V180.868H25.1336L13.0669 192.45V244.74Z" fill="white" stroke="black"/>
<rect x="13.0669" y="192.355" width="52.2892" height="52.2892" fill="white" stroke="black" stroke-linejoin="bevel"/>
<path d="M1 256.226H53.2892L65.356 244.644V192.355H13.0667L1 203.937V256.226Z" fill="white" stroke="black"/>
<rect x="1" y="203.842" width="52.2892" height="52.2892" fill="white" stroke="black" stroke-linejoin="bevel"/>
<path d="M37.2034 169.382H89.4926L101.559 157.799V105.51H49.2701L37.2034 117.092V169.382Z" fill="white" stroke="black"/>
<rect x="37.2035" y="116.997" width="52.2892" height="52.2892" fill="white" stroke="black" stroke-linejoin="bevel"/>
<path d="M25.1351 180.868H77.4244L89.4911 169.286V116.997H37.2019L25.1351 128.579V180.868Z" fill="white" stroke="black"/>
<rect x="25.1352" y="128.484" width="52.2892" height="52.2892" fill="white" stroke="black" stroke-linejoin="bevel"/>
<path d="M13.0669 192.355H65.3561L77.4229 180.773V128.484H25.1336L13.0669 140.066V192.355Z" fill="white" stroke="black"/>
<rect x="13.0669" y="139.971" width="52.2892" height="52.2892" fill="white" stroke="black" stroke-linejoin="bevel"/>
<path d="M1 203.842H53.2892L65.356 192.26V139.971H13.0667L1 151.553V203.842Z" fill="white" stroke="black"/>
<rect x="1" y="151.458" width="52.2892" height="52.2892" fill="white" stroke="black" stroke-linejoin="bevel"/>
<path d="M25.1351 128.484H77.4244L89.4911 116.902V64.6126H37.2019L25.1351 76.1946V128.484Z" fill="white" stroke="black"/>
<rect x="25.1352" y="76.0994" width="52.2892" height="52.2892" fill="white" stroke="black" stroke-linejoin="bevel"/>
<path d="M13.0669 139.971H65.3561L77.4229 128.389V76.0995H25.1336L13.0669 87.6815V139.971Z" fill="white" stroke="black"/>
<rect x="13.0669" y="87.5863" width="52.2892" height="52.2892" fill="white" stroke="black" stroke-linejoin="bevel"/>
<path d="M1 151.458H53.2892L65.356 139.876V87.5863H13.0667L1 99.1684V151.458Z" fill="white" stroke="black"/>
<rect x="1" y="99.0731" width="52.2892" height="52.2892" fill="white" stroke="black" stroke-linejoin="bevel"/>
<path d="M89.4939 221.766H141.783L153.85 210.184V157.895H101.561L89.4939 169.477V221.766Z" fill="white" stroke="black"/>
<rect x="89.4939" y="169.381" width="52.2892" height="52.2892" fill="white" stroke="black" stroke-linejoin="bevel"/>
<path d="M141.779 221.766H194.068L206.135 210.184V157.895H153.846L141.779 169.477V221.766Z" fill="white" stroke="black"/>
<rect x="141.779" y="169.381" width="52.2892" height="52.2892" fill="white" stroke="black" stroke-linejoin="bevel"/>
<path d="M194.068 221.766H246.357L258.423 210.184V157.895H206.134L194.068 169.477V221.766Z" fill="white" stroke="black"/>
<rect x="194.067" y="169.381" width="52.2892" height="52.2892" fill="white" stroke="black" stroke-linejoin="bevel"/>
<path d="M77.4258 233.253H129.715L141.782 221.671V169.381H89.4925L77.4258 180.964V233.253Z" fill="white" stroke="black"/>
<rect x="77.4258" y="180.868" width="52.2892" height="52.2892" fill="white" stroke="black" stroke-linejoin="bevel"/>
<path d="M129.714 233.253H182.004L194.07 221.671V169.381H141.781L129.714 180.964V233.253Z" fill="white" stroke="black"/>
<rect x="129.714" y="180.868" width="52.2892" height="52.2892" fill="white" stroke="black" stroke-linejoin="bevel"/>
<path d="M182.005 233.253H234.294L246.361 221.671V169.381H194.072L182.005 180.964V233.253Z" fill="white" stroke="black"/>
<rect x="182.005" y="180.868" width="52.2892" height="52.2892" fill="white" stroke="black" stroke-linejoin="bevel"/>
<path d="M65.3575 244.74H117.647L129.714 233.158V180.868H77.4243L65.3575 192.45V244.74Z" fill="white" stroke="black"/>
<rect x="65.3575" y="192.355" width="52.2892" height="52.2892" fill="white" stroke="black" stroke-linejoin="bevel"/>
<path d="M53.2905 256.226H105.58L117.646 244.644V192.355H65.3573L53.2905 203.937V256.226Z" fill="white" stroke="black"/>
<rect x="53.2906" y="203.842" width="52.2892" height="52.2892" fill="white" stroke="black" stroke-linejoin="bevel"/>
<path d="M117.646 244.74H169.935L182.002 233.158V180.868H129.713L117.646 192.45V244.74Z" fill="white" stroke="black"/>
<rect x="117.646" y="192.355" width="52.2892" height="52.2892" fill="white" stroke="black" stroke-linejoin="bevel"/>
<path d="M105.579 256.226H157.868L169.935 244.644V192.355H117.646L105.579 203.937V256.226Z" fill="white" stroke="black"/>
<rect x="105.579" y="203.842" width="52.2892" height="52.2892" fill="white" stroke="black" stroke-linejoin="bevel"/>
<path d="M169.939 244.74H222.228L234.295 233.158V180.868H182.005L169.939 192.45V244.74Z" fill="white" stroke="black"/>
<rect x="169.939" y="192.355" width="52.2892" height="52.2892" fill="white" stroke="black" stroke-linejoin="bevel"/>
<path d="M157.872 256.226H210.161L222.228 244.644V192.355H169.938L157.872 203.937V256.226Z" fill="white" stroke="black"/>
<rect x="157.872" y="203.842" width="52.2892" height="52.2892" fill="white" stroke="black" stroke-linejoin="bevel"/>
<path d="M89.4939 169.382H141.783L153.85 157.799V105.51H101.561L89.4939 117.092V169.382Z" fill="white" stroke="black"/>
<rect x="89.4939" y="116.997" width="52.2892" height="52.2892" fill="white" stroke="black" stroke-linejoin="bevel"/>
<path d="M77.4258 180.868H129.715L141.782 169.286V116.997H89.4925L77.4258 128.579V180.868Z" fill="white" stroke="black"/>
<rect x="77.4258" y="128.484" width="52.2892" height="52.2892" fill="white" stroke="black" stroke-linejoin="bevel"/>
<path d="M65.3575 192.355H117.647L129.714 180.773V128.484H77.4243L65.3575 140.066V192.355Z" fill="white" stroke="black"/>
<rect x="65.3575" y="139.971" width="52.2892" height="52.2892" fill="white" stroke="black" stroke-linejoin="bevel"/>
<path d="M53.2905 203.842H105.58L117.646 192.26V139.971H65.3573L53.2905 151.553V203.842Z" fill="white" stroke="black"/>
<rect x="53.2906" y="151.458" width="52.2892" height="52.2892" fill="white" stroke="black" stroke-linejoin="bevel"/>
<path d="M89.4939 116.997H141.783L153.85 105.415V53.1258H101.561L89.4939 64.7078V116.997Z" fill="white" stroke="black"/>
<rect x="89.4939" y="64.6127" width="52.2892" height="52.2892" fill="white" stroke="black" stroke-linejoin="bevel"/>
<path d="M77.4258 128.484H129.715L141.782 116.902V64.6126H89.4925L77.4258 76.1946V128.484Z" fill="white" stroke="black"/>
<rect x="77.4258" y="76.0994" width="52.2892" height="52.2892" fill="white" stroke="black" stroke-linejoin="bevel"/>
<path d="M65.3575 139.971H117.647L129.714 128.389V76.0995H77.4243L65.3575 87.6815V139.971Z" fill="white" stroke="black"/>
<rect x="65.3575" y="87.5863" width="52.2892" height="52.2892" fill="white" stroke="black" stroke-linejoin="bevel"/>
<path d="M53.2905 151.458H105.58L117.646 139.876V87.5863H65.3573L53.2905 99.1684V151.458Z" fill="white" stroke="black"/>
<rect x="53.2906" y="99.0731" width="52.2892" height="52.2892" fill="white" stroke="black" stroke-linejoin="bevel"/>
<path d="M246.36 221.766H298.649L310.716 210.184V157.895H258.427L246.36 169.477V221.766Z" fill="white" stroke="black"/>
<rect x="246.36" y="169.381" width="52.2892" height="52.2892" fill="white" stroke="black" stroke-linejoin="bevel"/>
<path d="M298.643 221.766H350.932L362.999 210.184V157.895H310.71L298.643 169.477V221.766Z" fill="white" stroke="black"/>
<rect x="298.643" y="169.381" width="52.2892" height="52.2892" fill="white" stroke="black" stroke-linejoin="bevel"/>
<path d="M234.292 233.253H286.581L298.648 221.671V169.381H246.358L234.292 180.964V233.253Z" fill="white" stroke="black"/>
<rect x="234.292" y="180.868" width="52.2892" height="52.2892" fill="white" stroke="black" stroke-linejoin="bevel"/>
<path d="M286.579 233.253H338.868L350.935 221.671V169.381H298.645L286.579 180.964V233.253Z" fill="white" stroke="black"/>
<rect x="286.579" y="180.868" width="52.2892" height="52.2892" fill="white" stroke="black" stroke-linejoin="bevel"/>
<path d="M222.227 244.74H274.517L286.583 233.158V180.868H234.294L222.227 192.45V244.74Z" fill="white" stroke="black"/>
<rect x="222.227" y="192.355" width="52.2892" height="52.2892" fill="white" stroke="black" stroke-linejoin="bevel"/>
<path d="M210.16 256.226H262.45L274.516 244.644V192.355H222.227L210.16 203.937V256.226Z" fill="white" stroke="black"/>
<rect x="210.16" y="203.842" width="52.2892" height="52.2892" fill="white" stroke="black" stroke-linejoin="bevel"/>
<path d="M274.512 244.74H326.802L338.868 233.158V180.868H286.579L274.512 192.45V244.74Z" fill="white" stroke="black"/>
<rect x="274.512" y="192.355" width="52.2892" height="52.2892" fill="white" stroke="black" stroke-linejoin="bevel"/>
<path d="M262.45 256.131H314.739L326.806 244.549V192.26H274.516L262.45 203.842V256.131Z" fill="white" stroke="black"/>
<rect x="262.449" y="203.747" width="52.2892" height="52.2892" fill="white" stroke="black" stroke-linejoin="bevel"/>
<path d="M246.36 169.382H298.649L310.716 157.799V105.51H258.427L246.36 117.092V169.382Z" fill="white" stroke="black"/>
<rect x="246.36" y="116.997" width="52.2892" height="52.2892" fill="white" stroke="black" stroke-linejoin="bevel"/>
<path d="M298.643 169.382H350.932L362.999 157.799V105.51H310.71L298.643 117.092V169.382Z" fill="white" stroke="black"/>
<rect x="298.643" y="116.997" width="52.2892" height="52.2892" fill="white" stroke="black" stroke-linejoin="bevel"/>
<path d="M234.292 180.868H286.581L298.648 169.286V116.997H246.358L234.292 128.579V180.868Z" fill="white" stroke="black"/>
<rect x="234.292" y="128.484" width="52.2892" height="52.2892" fill="white" stroke="black" stroke-linejoin="bevel"/>
<path d="M286.579 180.868H338.868L350.935 169.286V116.997H298.645L286.579 128.579V180.868Z" fill="white" stroke="black"/>
<rect x="286.579" y="128.484" width="52.2892" height="52.2892" fill="white" stroke="black" stroke-linejoin="bevel"/>
<path d="M222.227 192.355H274.517L286.583 180.773V128.484H234.294L222.227 140.066V192.355Z" fill="white" stroke="black"/>
<rect x="222.227" y="139.971" width="52.2892" height="52.2892" fill="white" stroke="black" stroke-linejoin="bevel"/>
<path d="M210.16 203.842H262.45L274.516 192.26V139.971H222.227L210.16 151.553V203.842Z" fill="white" stroke="black"/>
<rect x="210.16" y="151.458" width="52.2892" height="52.2892" fill="white" stroke="black" stroke-linejoin="bevel"/>
<path d="M274.512 192.355H326.802L338.868 180.773V128.484H286.579L274.512 140.066V192.355Z" fill="white" stroke="black"/>
<rect x="274.512" y="139.971" width="52.2892" height="52.2892" fill="white" stroke="black" stroke-linejoin="bevel"/>
<path d="M262.445 203.842H314.735L326.801 192.26V139.971H274.512L262.445 151.553V203.842Z" fill="white" stroke="black"/>
<rect x="262.445" y="151.458" width="52.2892" height="52.2892" fill="white" stroke="black" stroke-linejoin="bevel"/>
<path d="M246.36 116.997H298.649L310.716 105.415V53.1258H258.427L246.36 64.7078V116.997Z" fill="white" stroke="black"/>
<rect x="246.36" y="64.6127" width="52.2892" height="52.2892" fill="white" stroke="black" stroke-linejoin="bevel"/>
<path d="M298.643 116.997H350.932L362.999 105.415V53.1258H310.71L298.643 64.7078V116.997Z" fill="white" stroke="black"/>
<rect x="298.643" y="64.6127" width="52.2892" height="52.2892" fill="white" stroke="black" stroke-linejoin="bevel"/>
<path d="M234.292 128.484H286.581L298.648 116.902V64.6126H246.358L234.292 76.1946V128.484Z" fill="white" stroke="black"/>
<rect x="234.292" y="76.0995" width="52.2892" height="52.2892" fill="white" stroke="black" stroke-linejoin="bevel"/>
<path d="M286.579 128.484H338.868L350.935 116.902V64.6126H298.645L286.579 76.1946V128.484Z" fill="white" stroke="black"/>
<rect x="286.579" y="76.0995" width="52.2892" height="52.2892" fill="white" stroke="black" stroke-linejoin="bevel"/>
<path d="M222.227 139.971H274.517L286.583 128.389V76.0995H234.294L222.227 87.6815V139.971Z" fill="white" stroke="black"/>
<rect x="222.227" y="87.5863" width="52.2892" height="52.2892" fill="white" stroke="black" stroke-linejoin="bevel"/>
<path d="M210.156 151.458H262.445L274.512 139.876V87.5863H222.223L210.156 99.1684V151.458Z" fill="white" stroke="black"/>
<rect x="210.156" y="99.0732" width="52.2892" height="52.2892" fill="white" stroke="black" stroke-linejoin="bevel"/>
<path d="M274.512 139.971H326.802L338.868 128.389V76.0995H286.579L274.512 87.6815V139.971Z" fill="white" stroke="black"/>
<rect x="274.512" y="87.5863" width="52.2892" height="52.2892" fill="white" stroke="black" stroke-linejoin="bevel"/>
<path d="M262.445 151.458H314.735L326.801 139.876V87.5863H274.512L262.445 99.1684V151.458Z" fill="white" stroke="black"/>
<rect x="262.445" y="99.0732" width="52.2892" height="52.2892" fill="white" stroke="black" stroke-linejoin="bevel"/>
<path d="M89.4939 64.6127H141.783L153.85 53.0306V0.741394H101.561L89.4939 12.3234V64.6127Z" fill="white" stroke="black"/>
<rect x="89.4939" y="12.2283" width="52.2892" height="52.2892" fill="white" stroke="black" stroke-linejoin="bevel"/>
<path d="M141.779 64.6127H194.068L206.135 53.0306V0.741394H153.846L141.779 12.3234V64.6127Z" fill="white" stroke="black"/>
<rect x="141.779" y="12.2283" width="52.2892" height="52.2892" fill="white" stroke="black" stroke-linejoin="bevel"/>
<path d="M194.068 64.6127H246.357L258.423 53.0306V0.741394H206.134L194.068 12.3234V64.6127Z" fill="white" stroke="black"/>
<rect x="194.067" y="12.2283" width="52.2892" height="52.2892" fill="white" stroke="black" stroke-linejoin="bevel"/>
<path d="M77.4258 76.0995H129.715L141.782 64.5175V12.2283H89.4925L77.4258 23.8103V76.0995Z" fill="white" stroke="black"/>
<rect x="77.4258" y="23.7151" width="52.2892" height="52.2892" fill="white" stroke="black" stroke-linejoin="bevel"/>
<path d="M129.714 76.0995H182.004L194.07 64.5175V12.2283H141.781L129.714 23.8103V76.0995Z" fill="white" stroke="black"/>
<rect x="129.714" y="23.7151" width="52.2892" height="52.2892" fill="white" stroke="black" stroke-linejoin="bevel"/>
<path d="M182.005 76.0995H234.294L246.361 64.5175V12.2283H194.072L182.005 23.8103V76.0995Z" fill="white" stroke="black"/>
<rect x="182.005" y="23.7151" width="52.2892" height="52.2892" fill="white" stroke="black" stroke-linejoin="bevel"/>
<path d="M65.3575 87.5863H117.647L129.714 76.0043V23.7151H77.4243L65.3575 35.2971V87.5863Z" fill="white" stroke="black"/>
<rect x="65.3575" y="35.202" width="52.2892" height="52.2892" fill="white" stroke="black" stroke-linejoin="bevel"/>
<path d="M53.2905 99.0731H105.58L117.646 87.4911V35.2019H65.3573L53.2905 46.7839V99.0731Z" fill="white" stroke="black"/>
<rect x="53.2906" y="46.6888" width="52.2892" height="52.2892" fill="white" stroke="black" stroke-linejoin="bevel"/>
<path d="M117.646 87.5863H169.935L182.002 76.0043V23.7151H129.713L117.646 35.2971V87.5863Z" fill="white" stroke="black"/>
<rect x="117.646" y="35.2019" width="52.2892" height="52.2892" fill="white" stroke="black" stroke-linejoin="bevel"/>
<path d="M105.579 99.0731H157.868L169.935 87.4911V35.2019H117.646L105.579 46.7839V99.0731Z" fill="white" stroke="black"/>
<rect x="105.579" y="46.6887" width="52.2892" height="52.2892" fill="white" stroke="black" stroke-linejoin="bevel"/>
<path d="M169.939 87.5863H222.228L234.295 76.0043V23.7151H182.005L169.939 35.2971V87.5863Z" fill="white" stroke="black"/>
<rect x="169.939" y="35.2019" width="52.2892" height="52.2892" fill="white" stroke="black" stroke-linejoin="bevel"/>
<path d="M157.872 99.0731H210.161L222.228 87.4911V35.2019H169.938L157.872 46.7839V99.0731Z" fill="white" stroke="black"/>
<rect x="157.872" y="46.6887" width="52.2892" height="52.2892" fill="white" stroke="black" stroke-linejoin="bevel"/>
<path d="M246.36 64.6127H298.649L310.716 53.0306V0.741394H258.427L246.36 12.3234V64.6127Z" fill="white" stroke="black"/>
<rect x="246.36" y="12.2283" width="52.2892" height="52.2892" fill="white" stroke="black" stroke-linejoin="bevel"/>
<path d="M234.292 76.0995H286.581L298.648 64.5175V12.2283H246.358L234.292 23.8103V76.0995Z" fill="white" stroke="black"/>
<rect x="234.292" y="23.7151" width="52.2892" height="52.2892" fill="white" stroke="black" stroke-linejoin="bevel"/>
<path d="M222.227 87.5863H274.517L286.583 76.0043V23.7151H234.294L222.227 35.2971V87.5863Z" fill="white" stroke="black"/>
<rect x="222.227" y="35.2019" width="52.2892" height="52.2892" fill="white" stroke="black" stroke-linejoin="bevel"/>
<path d="M210.16 99.0731H262.45L274.516 87.4911V35.2019H222.227L210.16 46.7839V99.0731Z" fill="white" stroke="black"/>
<rect x="210.16" y="46.6887" width="52.2892" height="52.2892" fill="white" stroke="black" stroke-linejoin="bevel"/>
</svg>
