<svg width="48" height="49" viewBox="0 0 48 49" fill="currentColor" xmlns="http://www.w3.org/2000/svg">
<path fill-rule="evenodd" clip-rule="evenodd" d="M31.5291 40.4197L39.4062 32.5425L33.5534 26.6897L30.6979 23.8342L30.6982 14.7818L30.7124 14.7676L23.5432 7.59839L20.2214 10.9202L23.806 14.5048L26.0004 16.6992L26.0002 22.5374L21.9108 26.6267L16.0902 26.6269L13.8763 24.413L11.6559 22.1926L11.6562 17.4566L6.95847 17.4566L6.95801 24.1525L6.97224 24.1525L14.1391 31.3194L14.1564 31.3021L14.1564 31.3247L22.4338 31.3244L31.5291 40.4197Z" fill="currentColor"/>
<path d="M17.4375 12.2944L17.4375 7.59669L23.5208 7.59623L23.5208 12.294L17.4375 12.2944Z" fill="currentColor"/>
</svg>
