<svg width="48" height="49" viewBox="0 0 48 49" fill="currentColor" xmlns="http://www.w3.org/2000/svg">
<circle cx="24.2664" cy="10.2781" r="5.0617" transform="rotate(-90 24.2664 10.2781)" stroke="currentColor" stroke-width="4.2"/>
<path fill-rule="evenodd" clip-rule="evenodd" d="M9.58606 16.6848L13.6094 16.6848L24.254 22.8308L34.8751 16.6983L34.8751 16.6848L34.8986 16.6848L38.8985 16.6848L38.8985 32.2436L38.8698 32.2436L38.9102 32.3137L24.2676 40.7681L24.2647 40.773L24.2619 40.7714L24.259 40.773L24.2561 40.7681L9.61345 32.3137L9.65392 32.2436L9.58606 32.2436L9.58606 16.6848ZM34.8751 21.3442L34.8751 24.4642L34.8751 29.9976L24.2619 36.1255L13.6094 29.975L13.6094 24.4642L13.6094 21.3306L24.2166 27.4551L24.254 27.3902L24.2914 27.4551L34.8751 21.3442Z" fill="currentColor"/>
</svg>
