<svg width="48" height="49" viewBox="0 0 48 49" fill="currentColor" xmlns="http://www.w3.org/2000/svg">
<path fill-rule="evenodd" clip-rule="evenodd" d="M11.2032 29.9858L8.21948 27.0023L16.6407 18.581L16.6407 18.5653L16.6563 18.5653L16.6593 18.5623L16.6623 18.5653L30.7059 18.5653L30.7059 18.58L30.7236 18.5623L39.1634 27.0023L36.1797 29.9858L28.9787 22.7847L23.6733 22.7847L18.4042 22.7847L11.2032 29.9858Z" fill="currentColor"/>
<path fill-rule="evenodd" clip-rule="evenodd" d="M16.6875 35.4497L13.7039 32.4662L20.3131 25.8567L20.3282 25.8718L20.3282 25.8515L27.0049 25.8515L27.0543 25.8021L33.7181 32.4662L30.7344 35.4497L25.3557 30.0708L23.7014 30.0708L22.0662 30.0708L16.6875 35.4497Z" fill="currentColor"/>
<path fill-rule="evenodd" clip-rule="evenodd" d="M2.96948 21.8463L5.95316 24.8298L15.5215 15.2615L19.4973 15.2615L20.7983 15.2615L26.5299 15.2615L27.8309 15.2615L31.8067 15.2615L41.375 24.8298L44.3587 21.8463L33.5625 11.0501L33.5625 11.0421L27.8308 11.0421L19.4973 11.0421L13.7657 11.0421L13.7657 11.0501L2.96948 21.8463Z" fill="currentColor"/>
</svg>
