<svg width="40" height="41" viewBox="0 0 40 41" fill="none" xmlns="http://www.w3.org/2000/svg">
<mask id="mask0_190_3940" style="mask-type:alpha" maskUnits="userSpaceOnUse" x="0" y="0" width="40" height="41">
<rect y="0.64502" width="40" height="40" fill="#D9D9D9"/>
</mask>
<g mask="url(#mask0_190_3940)">
<path d="M6.32794 37.6204V13.6096H24.6913V10.5654C24.6913 9.25402 24.2367 8.1393 23.3275 7.22124C22.4184 6.30318 21.3092 5.84416 20 5.84416C18.6909 5.84416 17.5817 6.30318 16.6725 7.22124C15.7634 8.1393 15.3088 9.25402 15.3088 10.5654H11.5171C11.5171 8.20652 12.3429 6.19804 13.9946 4.53999C15.6463 2.88165 17.6481 2.05249 20 2.05249C22.352 2.05249 24.3538 2.88165 26.0054 4.53999C27.6571 6.19804 28.4829 8.20652 28.4829 10.5654V13.6096H33.6721V37.6204H6.32794ZM10.1196 33.8287H29.8804V17.4012H10.1196V33.8287ZM20 28.9483C20.9167 28.9483 21.7014 28.6219 22.3542 27.9692C23.007 27.3164 23.3334 26.5317 23.3334 25.615C23.3334 24.6983 23.007 23.9136 22.3542 23.2608C21.7014 22.608 20.9167 22.2817 20 22.2817C19.0834 22.2817 18.2986 22.608 17.6459 23.2608C16.9931 23.9136 16.6667 24.6983 16.6667 25.615C16.6667 26.5317 16.9931 27.3164 17.6459 27.9692C18.2986 28.6219 19.0834 28.9483 20 28.9483Z" fill="#0B0B0B"/>
</g>
</svg>
