<svg width="48" height="49" viewBox="0 0 48 49" fill="none" xmlns="http://www.w3.org/2000/svg">
<g id="Frame 26085680">
<g id="Group 1171275456">
<g id="Group 37006">
<path id="Union" fill-rule="evenodd" clip-rule="evenodd" d="M15.2891 37.1337L12.3404 40.0825L3.99883 31.7411L4.00177 31.7382L4.00177 17.8436L3.99883 17.8406L12.3404 9.49925L15.2891 12.4481L8.17187 19.5652L8.17187 24.7905L8.17187 30.0166L15.2891 37.1337Z" fill="#FF5E2A"/>
<path id="Union_2" fill-rule="evenodd" clip-rule="evenodd" d="M20.6875 31.7333L17.7388 34.6821L11.2065 28.1501L11.2131 28.1434L11.1971 28.1434L11.1971 21.5293L11.1525 21.4847L17.7388 14.8987L20.6875 17.8475L15.3672 23.1676L15.3672 24.8096L15.3672 26.4132L20.6875 31.7333Z" fill="#FF5E2A"/>
</g>
<g id="Group 37007">
<path id="Union_3" fill-rule="evenodd" clip-rule="evenodd" d="M32.0859 37.1337L35.0346 40.0825L43.3762 31.7411L43.3732 31.7382L43.3732 17.8436L43.3762 17.8406L35.0346 9.49925L32.0859 12.4481L39.2031 19.5652L39.2031 24.7905L39.2031 30.0166L32.0859 37.1337Z" fill="#FF5E2A"/>
<path id="Union_4" fill-rule="evenodd" clip-rule="evenodd" d="M26.6875 31.7333L29.6362 34.6821L36.1685 28.1501L36.1619 28.1434L36.1779 28.1434L36.1779 21.5293L36.2225 21.4847L29.6362 14.8987L26.6875 17.8475L32.0078 23.1676L32.0078 24.8096L32.0078 26.4132L26.6875 31.7333Z" fill="#FF5E2A"/>
</g>
<circle id="Ellipse 1351" cx="23.6836" cy="24.792" r="3.26172" fill="#FF5E2A"/>
</g>
</g>
</svg>
