<svg width="48" height="49" viewBox="0 0 48 49" fill="currentColor" xmlns="http://www.w3.org/2000/svg">
<path fill-rule="evenodd" clip-rule="evenodd" d="M15.2891 37.2787L12.3404 40.2275L3.99889 31.8862L4.00183 31.8832L4.00183 17.9886L3.99889 17.9856L12.3404 9.64427L15.2891 12.5931L8.17193 19.7102L8.17193 24.9356L8.17193 30.1616L15.2891 37.2787Z" fill="currentColor"/>
<path fill-rule="evenodd" clip-rule="evenodd" d="M20.6875 31.8783L17.7388 34.8271L11.2065 28.2951L11.2131 28.2884L11.1971 28.2884L11.1971 21.6743L11.1525 21.6297L17.7388 15.0437L20.6875 17.9925L15.3672 23.3127L15.3672 24.9546L15.3672 26.5582L20.6875 31.8783Z" fill="currentColor"/>
<path fill-rule="evenodd" clip-rule="evenodd" d="M32.0859 37.2787L35.0346 40.2275L43.3761 31.8862L43.3732 31.8832L43.3732 17.9886L43.3761 17.9856L35.0346 9.64427L32.0859 12.5931L39.2031 19.7102L39.2031 24.9356L39.2031 30.1616L32.0859 37.2787Z" fill="currentColor"/>
<path fill-rule="evenodd" clip-rule="evenodd" d="M26.6875 31.8783L29.6362 34.8271L36.1685 28.2951L36.1619 28.2884L36.1779 28.2884L36.1779 21.6743L36.2225 21.6297L29.6362 15.0437L26.6875 17.9925L32.0078 23.3127L32.0078 24.9546L32.0078 26.5582L26.6875 31.8783Z" fill="currentColor"/>
<circle cx="23.6836" cy="24.937" r="3.26172" fill="currentColor"/>
</svg>
