<svg width="48" height="48" viewBox="0 0 48 48" fill="none" xmlns="http://www.w3.org/2000/svg">
<g id="Frame 26085681">
<path id="Union" fill-rule="evenodd" clip-rule="evenodd" d="M20.9883 16.3489V16.3621L15.174 16.3621V31.7924L24.4525 37.1497L33.733 31.7912V16.3622H37.9031V34.1909H37.8981L37.9029 34.1991L24.4601 41.9607L24.4559 41.9535L24.45 41.9637L11.0021 34.1991L11.0069 34.1908H11.0039V16.3621H11V12.192L19.2575 12.192L21.4966 9.95281L21.4925 9.94871L24.4413 7L24.4453 7.00397L24.4493 7L27.3981 9.94871L27.394 9.95281L29.6332 12.192L37.8906 12.192V16.3621L27.9023 16.3621V16.3489L27.8974 16.3539L24.4453 12.9017L20.9932 16.3539L20.9883 16.3489Z" fill="#FF5E2A"/>
</g>
</svg>
