<svg width="48" height="48" viewBox="0 0 48 48" fill="none" xmlns="http://www.w3.org/2000/svg">
<mask id="mask0_62_7" style="mask-type:alpha" maskUnits="userSpaceOnUse" x="4" y="4" width="40" height="40">
<rect x="4" y="4" width="40" height="40" fill="#D9D9D9"/>
</mask>
<g mask="url(#mask0_62_7)">
<path d="M8.66113 39.3388V29H12.4528V35.5471H18.9999V39.3388H8.66113ZM28.9999 39.3388V35.5471H35.547V29H39.3386V39.3388H28.9999ZM8.66113 19V8.66125H18.9999V12.4529H12.4528V19H8.66113ZM35.547 19V12.4529H28.9999V8.66125H39.3386V19H35.547ZM23.9978 30.9258C22.0928 30.9258 20.4627 30.2475 19.1074 28.8908C17.7518 27.5342 17.074 25.9032 17.074 23.9979C17.074 22.0929 17.7524 20.4628 19.109 19.1075C20.4657 17.752 22.0967 17.0742 24.002 17.0742C25.907 17.0742 27.5371 17.7525 28.8924 19.1092C30.2479 20.4658 30.9257 22.0968 30.9257 24.0021C30.9257 25.9071 30.2474 27.5372 28.8907 28.8925C27.534 30.2481 25.9031 30.9258 23.9978 30.9258ZM24.0015 27.1342C24.864 27.1342 25.6017 26.8271 26.2145 26.2129C26.8275 25.5988 27.134 24.8606 27.134 23.9983C27.134 23.1358 26.827 22.3982 26.2128 21.7854C25.5986 21.1724 24.8604 20.8658 23.9982 20.8658C23.1357 20.8658 22.3981 21.1729 21.7853 21.7871C21.1722 22.4013 20.8657 23.1394 20.8657 24.0017C20.8657 24.8642 21.1728 25.6018 21.787 26.2146C22.4011 26.8276 23.1393 27.1342 24.0015 27.1342Z" fill="#FF5E2A"/>
</g>
</svg>
