<svg width="24" height="25" viewBox="0 0 24 25" fill="none" xmlns="http://www.w3.org/2000/svg">
<g id="Social icon" clip-path="url(#clip0_1_932)">
<g id="Group">
<path id="Vector" d="M22.2234 0.318359H1.77187C0.792187 0.318359 0 1.0918 0 2.04805V22.584C0 23.5402 0.792187 24.3184 1.77187 24.3184H22.2234C23.2031 24.3184 24 23.5402 24 22.5887V2.04805C24 1.0918 23.2031 0.318359 22.2234 0.318359ZM7.12031 20.7699H3.55781V9.31367H7.12031V20.7699ZM5.33906 7.75273C4.19531 7.75273 3.27188 6.8293 3.27188 5.69023C3.27188 4.55117 4.19531 3.62773 5.33906 3.62773C6.47813 3.62773 7.40156 4.55117 7.40156 5.69023C7.40156 6.82461 6.47813 7.75273 5.33906 7.75273ZM20.4516 20.7699H16.8937V15.2012C16.8937 13.8746 16.8703 12.1637 15.0422 12.1637C13.1906 12.1637 12.9094 13.6121 12.9094 15.1074V20.7699H9.35625V9.31367H12.7687V10.8793H12.8156C13.2891 9.9793 14.4516 9.02773 16.1813 9.02773C19.7859 9.02773 20.4516 11.3996 20.4516 14.484V20.7699Z" fill="#E1DFDD"/>
</g>
</g>
<defs>
<clipPath id="clip0_1_932">
<rect width="24" height="24" fill="white" transform="translate(0 0.318359)"/>
</clipPath>
</defs>
</svg>
