<svg width="62" height="63" viewBox="0 0 62 63" fill="none" xmlns="http://www.w3.org/2000/svg">
<g id="Group 1171275388">
<g id="Subtract">
<mask id="path-1-inside-1_1_858" fill="white">
<path fill-rule="evenodd" clip-rule="evenodd" d="M11.3023 0.5H25.3213V11.9237H11.3023V25.7977H0V11.9237L11.3023 0.5ZM0 37.2008H11.3023V51.0765H25.3213V62.5H11.3023L0 51.0765V37.2008ZM36.7244 62.5H50.6977L62 51.0765V37.2008H50.6977V51.0765H36.7244V62.5ZM50.6977 25.7977V11.9237H36.7244V0.5H50.6977L62 11.9237V25.7977H50.6977Z"/>
</mask>
<path fill-rule="evenodd" clip-rule="evenodd" d="M11.3023 0.5H25.3213V11.9237H11.3023V25.7977H0V11.9237L11.3023 0.5ZM0 37.2008H11.3023V51.0765H25.3213V62.5H11.3023L0 51.0765V37.2008ZM36.7244 62.5H50.6977L62 51.0765V37.2008H50.6977V51.0765H36.7244V62.5ZM50.6977 25.7977V11.9237H36.7244V0.5H50.6977L62 11.9237V25.7977H50.6977Z" fill="#0B0B0B"/>
<path d="M25.3213 0.5H26.3213V-0.5H25.3213V0.5ZM11.3023 0.5V-0.5H10.885L10.5915 -0.203321L11.3023 0.5ZM25.3213 11.9237V12.9237H26.3213V11.9237H25.3213ZM11.3023 11.9237V10.9237H10.3023V11.9237H11.3023ZM11.3023 25.7977V26.7977H12.3023V25.7977H11.3023ZM0 25.7977H-1V26.7977H0V25.7977ZM0 11.9237L-0.710873 11.2204L-1 11.5126V11.9237H0ZM11.3023 37.2008H12.3023V36.2008H11.3023V37.2008ZM0 37.2008V36.2008H-1V37.2008H0ZM11.3023 51.0765H10.3023V52.0765H11.3023V51.0765ZM25.3213 51.0765H26.3213V50.0765H25.3213V51.0765ZM25.3213 62.5V63.5H26.3213V62.5H25.3213ZM11.3023 62.5L10.5915 63.2033L10.885 63.5H11.3023V62.5ZM0 51.0765H-1V51.4876L-0.710865 51.7799L0 51.0765ZM50.6977 62.5V63.5H51.115L51.4085 63.2033L50.6977 62.5ZM36.7244 62.5H35.7244V63.5H36.7244V62.5ZM62 51.0765L62.7109 51.7799L63 51.4876V51.0765H62ZM62 37.2008H63V36.2008H62V37.2008ZM50.6977 37.2008V36.2008H49.6977V37.2008H50.6977ZM50.6977 51.0765V52.0765H51.6977V51.0765H50.6977ZM36.7244 51.0765V50.0765H35.7244V51.0765H36.7244ZM50.6977 25.7977H49.6977V26.7977H50.6977V25.7977ZM50.6977 11.9237H51.6977V10.9237H50.6977V11.9237ZM36.7244 11.9237H35.7244V12.9237H36.7244V11.9237ZM36.7244 0.5V-0.5H35.7244V0.5H36.7244ZM50.6977 0.5L51.4085 -0.203321L51.115 -0.5H50.6977V0.5ZM62 11.9237H63V11.5126L62.7109 11.2204L62 11.9237ZM62 25.7977V26.7977H63V25.7977H62ZM25.3213 -0.5H11.3023V1.5H25.3213V-0.5ZM26.3213 11.9237V0.5H24.3213V11.9237H26.3213ZM11.3023 12.9237H25.3213V10.9237H11.3023V12.9237ZM12.3023 25.7977V11.9237H10.3023V25.7977H12.3023ZM0 26.7977H11.3023V24.7977H0V26.7977ZM-1 11.9237V25.7977H1V11.9237H-1ZM10.5915 -0.203321L-0.710873 11.2204L0.710873 12.627L12.0132 1.20332L10.5915 -0.203321ZM11.3023 36.2008H0V38.2008H11.3023V36.2008ZM12.3023 51.0765V37.2008H10.3023V51.0765H12.3023ZM25.3213 50.0765H11.3023V52.0765H25.3213V50.0765ZM26.3213 62.5V51.0765H24.3213V62.5H26.3213ZM11.3023 63.5H25.3213V61.5H11.3023V63.5ZM-0.710865 51.7799L10.5915 63.2033L12.0132 61.7967L0.710865 50.3732L-0.710865 51.7799ZM-1 37.2008V51.0765H1V37.2008H-1ZM50.6977 61.5H36.7244V63.5H50.6977V61.5ZM61.2891 50.3732L49.9868 61.7967L51.4085 63.2033L62.7109 51.7799L61.2891 50.3732ZM61 37.2008V51.0765H63V37.2008H61ZM62 36.2008H50.6977V38.2008H62V36.2008ZM51.6977 51.0765V37.2008H49.6977V51.0765H51.6977ZM36.7244 52.0765H50.6977V50.0765H36.7244V52.0765ZM37.7244 62.5V51.0765H35.7244V62.5H37.7244ZM51.6977 25.7977V11.9237H49.6977V25.7977H51.6977ZM50.6977 10.9237H36.7244V12.9237H50.6977V10.9237ZM37.7244 11.9237V0.5H35.7244V11.9237H37.7244ZM36.7244 1.5H50.6977V-0.5H36.7244V1.5ZM49.9868 1.20332L61.2891 12.627L62.7109 11.2204L51.4085 -0.203321L49.9868 1.20332ZM61 11.9237V25.7977H63V11.9237H61ZM50.6977 26.7977H62V24.7977H50.6977V26.7977Z" fill="#FF5E2A" mask="url(#path-1-inside-1_1_858)"/>
</g>
<circle id="Ellipse 1343" cx="31.0025" cy="31.5022" r="9.15262" fill="#0B0B0B"/>
</g>
</svg>
