<svg width="364" height="257" viewBox="0 0 364 257" fill="none" xmlns="http://www.w3.org/2000/svg">
<path d="M141.782 169.33H194.072L206.138 157.748V105.459H153.849L141.782 117.041V169.33Z" fill="white" stroke="black"/>
<rect x="141.782" y="116.946" width="52.2893" height="52.2893" fill="white" stroke="black" stroke-linejoin="bevel"/>
<path d="M141.782 64.5613H194.072L206.138 52.9792V0.689941H153.849L141.782 12.272V64.5613Z" fill="white" stroke="black"/>
<rect x="141.782" y="12.1768" width="52.2893" height="52.2893" fill="white" stroke="black" stroke-linejoin="bevel"/>
<path d="M37.2029 221.715H89.4922L101.559 210.133V157.843H49.2696L37.2029 169.425V221.715Z" fill="white" stroke="black"/>
<rect x="37.2029" y="169.33" width="52.2893" height="52.2893" fill="white" stroke="black" stroke-linejoin="bevel"/>
<path d="M25.1346 233.202H77.4239L89.4907 221.62V169.33H37.2014L25.1346 180.912V233.202Z" fill="white" stroke="black"/>
<rect x="25.1346" y="180.817" width="52.2893" height="52.2893" fill="white" stroke="black" stroke-linejoin="bevel"/>
<path d="M13.0664 244.688H65.3557L77.4225 233.106V180.817H25.1332L13.0664 192.399V244.688Z" fill="white" stroke="black"/>
<rect x="13.0663" y="192.304" width="52.2893" height="52.2893" fill="white" stroke="black" stroke-linejoin="bevel"/>
<path d="M1 256.175H53.2893L65.3561 244.593V192.304H13.0668L1 203.886V256.175Z" fill="white" stroke="black"/>
<rect x="1" y="203.791" width="52.2893" height="52.2893" fill="white" stroke="black" stroke-linejoin="bevel"/>
<path d="M89.4935 221.715H141.783L153.85 210.133V157.843H101.56L89.4935 169.425V221.715Z" fill="white" stroke="black"/>
<rect x="89.4935" y="169.33" width="52.2893" height="52.2893" fill="white" stroke="black" stroke-linejoin="bevel"/>
<path d="M141.778 221.715H194.068L206.135 210.133V157.843H153.845L141.778 169.425V221.715Z" fill="white" stroke="black"/>
<rect x="141.779" y="169.33" width="52.2893" height="52.2893" fill="white" stroke="black" stroke-linejoin="bevel"/>
<path d="M194.067 221.715H246.357L258.423 210.133V157.843H206.134L194.067 169.425V221.715Z" fill="white" stroke="black"/>
<rect x="194.067" y="169.33" width="52.2893" height="52.2893" fill="white" stroke="black" stroke-linejoin="bevel"/>
<path d="M194.067 169.33H246.357L258.423 157.748V105.459H206.134L194.067 117.041V169.33Z" fill="white" stroke="black"/>
<rect x="194.067" y="116.946" width="52.2893" height="52.2893" fill="white" stroke="black" stroke-linejoin="bevel"/>
<path d="M77.4253 233.202H129.715L141.781 221.62V169.33H89.4921L77.4253 180.912V233.202Z" fill="white" stroke="black"/>
<rect x="77.4253" y="180.817" width="52.2893" height="52.2893" fill="white" stroke="black" stroke-linejoin="bevel"/>
<path d="M129.714 233.202H182.003L194.07 221.62V169.33H141.781L129.714 180.912V233.202Z" fill="white" stroke="black"/>
<rect x="129.714" y="180.817" width="52.2893" height="52.2893" fill="white" stroke="black" stroke-linejoin="bevel"/>
<path d="M129.714 180.817H182.003L194.07 169.235V116.946H141.781L129.714 128.528V180.817Z" fill="white" stroke="black"/>
<rect x="129.714" y="128.433" width="52.2893" height="52.2893" fill="white" stroke="black" stroke-linejoin="bevel"/>
<path d="M129.714 128.433H182.003L194.07 116.851V64.5613H141.781L129.714 76.1433V128.433Z" fill="white" stroke="black"/>
<rect x="129.714" y="76.0481" width="52.2893" height="52.2893" fill="white" stroke="black" stroke-linejoin="bevel"/>
<path d="M129.714 76.0482H182.003L194.07 64.4661V12.1768H141.781L129.714 23.7589V76.0482Z" fill="white" stroke="black"/>
<rect x="129.714" y="23.6637" width="52.2893" height="52.2893" fill="white" stroke="black" stroke-linejoin="bevel"/>
<path d="M182.001 76.0482H234.29L246.357 64.4661V12.1768H194.068L182.001 23.7589V76.0482Z" fill="white" stroke="black"/>
<rect x="182.001" y="23.6637" width="52.2893" height="52.2893" fill="white" stroke="black" stroke-linejoin="bevel"/>
<path d="M232.281 76.0482H284.57L296.637 64.4661V12.1768H244.348L232.281 23.7589V76.0482Z" fill="white" stroke="black"/>
<rect x="232.281" y="23.6637" width="52.2893" height="52.2893" fill="white" stroke="black" stroke-linejoin="bevel"/>
<path d="M182.005 233.202H234.294L246.361 221.62V169.33H194.072L182.005 180.912V233.202Z" fill="white" stroke="black"/>
<rect x="182.005" y="180.817" width="52.2893" height="52.2893" fill="white" stroke="black" stroke-linejoin="bevel"/>
<path d="M182.005 180.817H234.294L246.361 169.235V116.946H194.072L182.005 128.528V180.817Z" fill="white" stroke="black"/>
<rect x="182.005" y="128.433" width="52.2893" height="52.2893" fill="white" stroke="black" stroke-linejoin="bevel"/>
<path d="M65.3571 244.688H117.646L129.713 233.106V180.817H77.4238L65.3571 192.399V244.688Z" fill="white" stroke="black"/>
<rect x="65.3571" y="192.304" width="52.2893" height="52.2893" fill="white" stroke="black" stroke-linejoin="bevel"/>
<path d="M53.2906 256.175H105.58L117.647 244.593V192.304H65.3574L53.2906 203.886V256.175Z" fill="white" stroke="black"/>
<rect x="53.2907" y="203.791" width="52.2893" height="52.2893" fill="white" stroke="black" stroke-linejoin="bevel"/>
<path d="M117.646 244.688H169.935L182.002 233.106V180.817H129.713L117.646 192.399V244.688Z" fill="white" stroke="black"/>
<rect x="117.646" y="192.304" width="52.2893" height="52.2893" fill="white" stroke="black" stroke-linejoin="bevel"/>
<path d="M117.646 192.304H169.935L182.002 180.722V128.433H129.713L117.646 140.015V192.304Z" fill="white" stroke="black"/>
<rect x="117.646" y="139.919" width="52.2893" height="52.2893" fill="white" stroke="black" stroke-linejoin="bevel"/>
<path d="M117.646 139.92H169.935L182.002 128.337V76.0482H129.713L117.646 87.6302V139.92Z" fill="white" stroke="black"/>
<rect x="117.646" y="87.535" width="52.2893" height="52.2893" fill="white" stroke="black" stroke-linejoin="bevel"/>
<path d="M117.646 87.535H169.935L182.002 75.9529V23.6636H129.713L117.646 35.2457V87.535Z" fill="white" stroke="black"/>
<rect x="117.646" y="35.1506" width="52.2893" height="52.2893" fill="white" stroke="black" stroke-linejoin="bevel"/>
<path d="M169.933 87.535H222.222L234.289 75.9529V23.6636H182L169.933 35.2457V87.535Z" fill="white" stroke="black"/>
<rect x="169.933" y="35.1506" width="52.2893" height="52.2893" fill="white" stroke="black" stroke-linejoin="bevel"/>
<path d="M220.213 87.535H272.502L284.569 75.9529V23.6636H232.279L220.213 35.2457V87.535Z" fill="white" stroke="black"/>
<rect x="220.213" y="35.1506" width="52.2893" height="52.2893" fill="white" stroke="black" stroke-linejoin="bevel"/>
<path d="M105.579 256.175H157.869L169.936 244.593V192.304H117.646L105.579 203.886V256.175Z" fill="white" stroke="black"/>
<rect x="105.579" y="203.791" width="52.2893" height="52.2893" fill="white" stroke="black" stroke-linejoin="bevel"/>
<path d="M105.579 203.791H157.869L169.936 192.209V139.919H117.646L105.579 151.501V203.791Z" fill="white" stroke="black"/>
<rect x="105.579" y="151.406" width="52.2893" height="52.2893" fill="white" stroke="black" stroke-linejoin="bevel"/>
<path d="M105.579 99.022H157.869L169.936 87.4399V35.1506H117.646L105.579 46.7327V99.022Z" fill="white" stroke="black"/>
<rect x="105.579" y="46.6375" width="52.2893" height="52.2893" fill="white" stroke="black" stroke-linejoin="bevel"/>
<path d="M169.938 244.688H222.228L234.294 233.106V180.817H182.005L169.938 192.399V244.688Z" fill="white" stroke="black"/>
<rect x="169.938" y="192.304" width="52.2893" height="52.2893" fill="white" stroke="black" stroke-linejoin="bevel"/>
<path d="M169.938 192.304H222.228L234.294 180.722V128.433H182.005L169.938 140.015V192.304Z" fill="white" stroke="black"/>
<rect x="169.938" y="139.919" width="52.2893" height="52.2893" fill="white" stroke="black" stroke-linejoin="bevel"/>
<path d="M157.872 256.175H210.161L222.228 244.593V192.304H169.939L157.872 203.886V256.175Z" fill="white" stroke="black"/>
<rect x="157.872" y="203.791" width="52.2893" height="52.2893" fill="white" stroke="black" stroke-linejoin="bevel"/>
<path d="M157.872 203.791H210.161L222.228 192.209V139.919H169.939L157.872 151.501V203.791Z" fill="white" stroke="black"/>
<rect x="157.872" y="151.406" width="52.2893" height="52.2893" fill="white" stroke="black" stroke-linejoin="bevel"/>
<path d="M246.36 221.715H298.649L310.716 210.133V157.843H258.427L246.36 169.425V221.715Z" fill="white" stroke="black"/>
<rect x="246.36" y="169.33" width="52.2893" height="52.2893" fill="white" stroke="black" stroke-linejoin="bevel"/>
<path d="M298.643 221.715H350.932L362.999 210.133V157.843H310.71L298.643 169.425V221.715Z" fill="white" stroke="black"/>
<rect x="298.643" y="169.33" width="52.2893" height="52.2893" fill="white" stroke="black" stroke-linejoin="bevel"/>
<path d="M234.292 233.202H286.581L298.648 221.62V169.33H246.358L234.292 180.912V233.202Z" fill="white" stroke="black"/>
<rect x="234.292" y="180.817" width="52.2893" height="52.2893" fill="white" stroke="black" stroke-linejoin="bevel"/>
<path d="M286.578 233.202H338.868L350.935 221.62V169.33H298.645L286.578 180.912V233.202Z" fill="white" stroke="black"/>
<rect x="286.578" y="180.817" width="52.2893" height="52.2893" fill="white" stroke="black" stroke-linejoin="bevel"/>
<path d="M222.227 244.688H274.516L286.583 233.106V180.817H234.294L222.227 192.399V244.688Z" fill="white" stroke="black"/>
<rect x="222.227" y="192.304" width="52.2893" height="52.2893" fill="white" stroke="black" stroke-linejoin="bevel"/>
<path d="M210.161 256.175H262.45L274.517 244.593V192.304H222.228L210.161 203.886V256.175Z" fill="white" stroke="black"/>
<rect x="210.161" y="203.791" width="52.2893" height="52.2893" fill="white" stroke="black" stroke-linejoin="bevel"/>
<path d="M274.512 244.688H326.801L338.868 233.106V180.817H286.579L274.512 192.399V244.688Z" fill="white" stroke="black"/>
<rect x="274.512" y="192.304" width="52.2893" height="52.2893" fill="white" stroke="black" stroke-linejoin="bevel"/>
<path d="M262.446 256.175H314.735L326.802 244.593V192.304H274.513L262.446 203.886V256.175Z" fill="white" stroke="black"/>
<rect x="262.446" y="203.791" width="52.2893" height="52.2893" fill="white" stroke="black" stroke-linejoin="bevel"/>
</svg>
