<svg width="40" height="41" viewBox="0 0 40 41" fill="none" xmlns="http://www.w3.org/2000/svg">
<mask id="mask0_190_3955" style="mask-type:alpha" maskUnits="userSpaceOnUse" x="0" y="0" width="40" height="41">
<rect y="0.64502" width="40" height="40" fill="#D9D9D9"/>
</mask>
<g mask="url(#mask0_190_3955)">
<path d="M18.25 26.6713L27.7763 17.1451L25.2917 14.6605L18.25 21.7021L14.74 18.2021L12.2654 20.6767L18.25 26.6713ZM20 37.6605C16.0409 36.6696 12.7724 34.4119 10.1946 30.8871C7.61683 27.3624 6.32794 23.4484 6.32794 19.1451V8.74464L20 3.62964L33.6721 8.74464V19.1451C33.6721 23.4484 32.3832 27.3624 29.8054 30.8871C27.2277 34.4119 23.9592 36.6696 20 37.6605ZM20 33.7021C22.8425 32.7455 25.1999 30.9121 27.0721 28.2021C28.9443 25.4919 29.8804 22.4744 29.8804 19.1496V11.3596L20 7.65964L10.1196 11.3646V19.1451C10.1196 22.4728 11.0557 25.4919 12.9279 28.2021C14.8002 30.9121 17.1575 32.7455 20 33.7021Z" fill="#0B0B0B"/>
</g>
</svg>
