<svg width="48" height="48" viewBox="0 0 48 48" fill="none" xmlns="http://www.w3.org/2000/svg">
<path fill-rule="evenodd" clip-rule="evenodd" d="M11.2051 29.3408L8.22144 26.3573L16.6426 17.936L16.6426 17.9203L16.6583 17.9203L16.6613 17.9173L16.6643 17.9203L30.7078 17.9203L30.7078 17.935L30.7255 17.9173L39.1654 26.3573L36.1817 29.3408L28.9806 22.1396L23.6752 22.1396L18.4062 22.1396L11.2051 29.3408Z" fill="#FF5E2A"/>
<path fill-rule="evenodd" clip-rule="evenodd" d="M16.6895 34.8047L13.7058 31.8212L20.315 25.2117L20.3301 25.2268L20.3301 25.2064L27.0069 25.2064L27.0562 25.1571L33.72 31.8212L30.7364 34.8047L25.3577 29.4258L23.7033 29.4258L22.0682 29.4258L16.6895 34.8047Z" fill="#FF5E2A"/>
<path fill-rule="evenodd" clip-rule="evenodd" d="M2.97144 21.201L5.95511 24.1846L15.5234 14.6162L19.4973 14.6162L20.8002 14.6162L26.5299 14.6162L27.8328 14.6162L31.8067 14.6162L41.375 24.1846L44.3587 21.201L33.5625 10.4048L33.5625 10.3969L27.8328 10.3969L19.4973 10.3969L13.7676 10.3969L13.7676 10.4048L2.97144 21.201Z" fill="#FF5E2A"/>
</svg>
