<svg width="48" height="48" viewBox="0 0 48 48" fill="none" xmlns="http://www.w3.org/2000/svg">
<g id="Frame 26085680">
<g id="Group 37007">
<path id="Union" fill-rule="evenodd" clip-rule="evenodd" d="M31.3818 38.6172L38.758 31.241L33.2774 25.7604L30.6025 23.0855L30.6028 14.6018L30.5915 14.6018L30.5952 14.5982L23.8819 7.88486L20.7713 10.9954L24.1279 14.3521L26.2037 16.4279L26.2035 21.873L22.3744 25.7021L16.9283 25.7023L14.8545 23.6285L12.789 21.5629L12.7893 17.117L8.39027 17.117L8.38984 23.3798L8.38728 23.3824L8.38984 23.3849L8.38984 23.3871L8.39203 23.3871L15.1006 30.0957L15.1033 30.093L15.1033 30.1014L22.8656 30.1011L31.3818 38.6172Z" fill="#FF5E2A"/>
<path id="Rectangle 24625" d="M18.1799 12.283L18.1799 7.88394L23.8764 7.8835L23.8764 12.2825L18.1799 12.283Z" fill="#FF5E2A"/>
</g>
</g>
</svg>
