<svg width="117" height="27" viewBox="0 0 117 27" fill="none" xmlns="http://www.w3.org/2000/svg">
<path d="M3.33398 0.78125L6.30273 7.26562L9.27148 0.78125H12.4648L7.78711 9.82422V15H4.81836V9.82422L0.130859 0.78125H3.33398ZM23.3047 12.7148V15H15.7363V12.7148H23.3047ZM16.6934 0.78125V15H13.7637V0.78125H16.6934ZM22.3184 6.57227V8.79883H15.7363V6.57227H22.3184ZM23.2949 0.78125V3.07617H15.7363V0.78125H23.2949ZM25.0137 0.78125H30.3164C31.4036 0.78125 32.3379 0.94401 33.1191 1.26953C33.9069 1.59505 34.5124 2.07682 34.9355 2.71484C35.3587 3.35286 35.5703 4.13737 35.5703 5.06836C35.5703 5.83008 35.4401 6.48438 35.1797 7.03125C34.9258 7.57161 34.5645 8.02409 34.0957 8.38867C33.6335 8.74674 33.0898 9.0332 32.4648 9.24805L31.5371 9.73633H26.9277L26.9082 7.45117H30.3359C30.8503 7.45117 31.2767 7.36003 31.6152 7.17773C31.9538 6.99544 32.2077 6.74154 32.377 6.41602C32.5527 6.09049 32.6406 5.71289 32.6406 5.2832C32.6406 4.82747 32.556 4.43359 32.3867 4.10156C32.2174 3.76953 31.9603 3.51562 31.6152 3.33984C31.2702 3.16406 30.8372 3.07617 30.3164 3.07617H27.9434V15H25.0137V0.78125ZM32.9629 15L29.7207 8.66211L32.8164 8.64258L36.0977 14.8633V15H32.9629ZM47.3672 12.7148V15H39.7988V12.7148H47.3672ZM40.7559 0.78125V15H37.8262V0.78125H40.7559ZM46.3809 6.57227V8.79883H39.7988V6.57227H46.3809ZM47.3574 0.78125V3.07617H39.7988V0.78125H47.3574ZM50.4141 0.78125H52.8945L56.5469 11.2207L60.1992 0.78125H62.6797L57.543 15H55.5508L50.4141 0.78125ZM49.0762 0.78125H51.5469L51.9961 10.957V15H49.0762V0.78125ZM61.5469 0.78125H64.0273V15H61.0977V10.957L61.5469 0.78125ZM76.1367 12.7148V15H68.5684V12.7148H76.1367ZM69.5254 0.78125V15H66.5957V0.78125H69.5254ZM75.1504 6.57227V8.79883H68.5684V6.57227H75.1504ZM76.127 0.78125V3.07617H68.5684V0.78125H76.127ZM89.418 0.78125V15H86.4883L80.7754 5.46875V15H77.8457V0.78125H80.7754L86.498 10.3223V0.78125H89.418ZM94.8965 0.78125V15H91.9668V0.78125H94.8965ZM103.412 0.78125L97.7773 7.80273L94.5254 11.2988L93.998 8.52539L96.1953 5.51758L99.8184 0.78125H103.412ZM100.082 15L95.8926 8.42773L98.0605 6.61133L103.549 15H100.082ZM116.049 7.55859V8.23242C116.049 9.31315 115.902 10.2832 115.609 11.1426C115.316 12.002 114.903 12.7344 114.369 13.3398C113.835 13.9388 113.197 14.3978 112.455 14.7168C111.719 15.0358 110.902 15.1953 110.004 15.1953C109.112 15.1953 108.295 15.0358 107.553 14.7168C106.817 14.3978 106.179 13.9388 105.639 13.3398C105.098 12.7344 104.678 12.002 104.379 11.1426C104.086 10.2832 103.939 9.31315 103.939 8.23242V7.55859C103.939 6.47135 104.086 5.5013 104.379 4.64844C104.672 3.78906 105.085 3.05664 105.619 2.45117C106.16 1.8457 106.798 1.38346 107.533 1.06445C108.275 0.745443 109.092 0.585938 109.984 0.585938C110.883 0.585938 111.7 0.745443 112.436 1.06445C113.178 1.38346 113.816 1.8457 114.35 2.45117C114.89 3.05664 115.307 3.78906 115.6 4.64844C115.899 5.5013 116.049 6.47135 116.049 7.55859ZM113.09 8.23242V7.53906C113.09 6.78385 113.021 6.11979 112.885 5.54688C112.748 4.97396 112.546 4.49219 112.279 4.10156C112.012 3.71094 111.687 3.41797 111.303 3.22266C110.919 3.02083 110.479 2.91992 109.984 2.91992C109.49 2.91992 109.05 3.02083 108.666 3.22266C108.288 3.41797 107.966 3.71094 107.699 4.10156C107.439 4.49219 107.24 4.97396 107.104 5.54688C106.967 6.11979 106.898 6.78385 106.898 7.53906V8.23242C106.898 8.98112 106.967 9.64518 107.104 10.2246C107.24 10.7975 107.442 11.2826 107.709 11.6797C107.976 12.0703 108.301 12.3665 108.686 12.5684C109.07 12.7702 109.509 12.8711 110.004 12.8711C110.499 12.8711 110.938 12.7702 111.322 12.5684C111.706 12.3665 112.029 12.0703 112.289 11.6797C112.549 11.2826 112.748 10.7975 112.885 10.2246C113.021 9.64518 113.09 8.98112 113.09 8.23242ZM21.5088 27V19.56H18.9288V18.6H25.1688V19.56H22.5888V27H21.5088ZM37.8837 23.16H42.0837V19.56H37.8837V23.16ZM43.1637 19.56V23.16L42.3597 23.964L43.8237 27H42.6597L41.3037 24.12H37.8837V27H36.8037V18.6H42.2037L43.1637 19.56ZM54.8084 27L56.9924 18.6H59.9444L62.1284 27H61.0244L60.4724 24.84H56.4644L55.9124 27H54.8084ZM56.7044 23.904H60.2324L59.1164 19.536H57.8204L56.7044 23.904ZM74.853 26.04H78.873V19.56H74.853V26.04ZM73.773 27V18.6H78.993L79.953 19.56V26.04L78.993 27H73.773ZM92.0702 27V18.6H97.8302V19.56H93.1502V22.2H97.2302V23.16H93.1502V26.04H97.9502V27H92.0702Z" fill="black"/>
</svg>
