<svg width="199" height="30" viewBox="0 0 199 30" fill="none" xmlns="http://www.w3.org/2000/svg">
<g id="Logo Frontline">
<g id="Group 1171275387">
<path id="Subtract" fill-rule="evenodd" clip-rule="evenodd" d="M6.19947 -2.00391H13.8906V4.26214H6.19947V11.8711H0V4.26214L6.19947 -2.00391ZM0 18.1258H6.19947V25.738H13.8906V32.0039H6.19947L0 25.738V18.1258ZM20.1454 32.0039H27.8083L34.0078 25.738V18.1258H27.8083V25.738H20.1454V32.0039ZM27.8083 11.8711V4.26214H20.1454V-2.00391H27.8083L34.0078 4.26214V11.8711H27.8083Z" fill="white"/>
<circle id="Ellipse 1343" cx="17.0047" cy="15.0008" r="5.02033" fill="white"/>
</g>
<g id="Group 1171275440">
<g id="Group 1171275433">
<g id="Group 1171275383">
<g id="Group 1171275382">
<g id="FRONTLINE">
<path id="Vector" d="M180.85 26.3678V26.4301L180.894 26.4742L184.298 29.879L184.343 29.9231H184.405H197.329H197.48V29.7726V26.2983V26.1479H197.329H185.181V21.3067H195.079H198.024H198.175V21.1563V13.6518V13.5929L198.135 13.5496L195.051 10.2143L195.006 10.166H194.941H184.405H184.343L184.298 10.21L180.894 13.6149L180.85 13.6589V13.7212V26.3678ZM194.226 13.8022V17.8704H185.181V13.8022H194.226Z" fill="white" stroke="white" stroke-width="0.300856"/>
<path id="Vector_2" d="M159.373 29.7726V29.9231H159.523H163.554H163.704V29.7726V14.0106H172.992V29.7726V29.9231H173.143H177.173H177.323V29.7726V13.7907V13.7284L177.279 13.6844L173.805 10.21L173.761 10.166H173.699H159.523H159.373V10.3164V29.7726Z" fill="white" stroke="white" stroke-width="0.300856"/>
<path id="Vector_3" d="M150.654 29.7706V29.921H150.805H154.835H154.985V29.7706V10.3144V10.164H154.835H150.805H150.654V10.3144V29.7706ZM150.654 6.87103V7.02146H150.805H154.835H154.985V6.87103V3.74414V3.59371H154.835H150.805H150.654V3.74414V6.87103Z" fill="white" stroke="white" stroke-width="0.300856"/>
<path id="Vector_4" d="M141.936 29.7724V29.9229H142.086H146.116H146.267V29.7724V2.82227V2.67184H146.116H142.086H141.936V2.82227V29.7724Z" fill="white" stroke="white" stroke-width="0.300856"/>
<path id="Vector_5" d="M125.117 2.66598H124.967V2.81641V26.2972V26.3595L125.011 26.4036L128.485 29.8779L128.529 29.922H128.592H137.416H137.567V29.7715V26.2972V26.1468H137.416H129.298V14.6349H137.416H137.567V14.4845V11.0102V10.8597H137.416H129.298V2.81641V2.66598H129.147H125.117Z" fill="white" stroke="white" stroke-width="0.300856"/>
<path id="Vector_6" d="M103.49 29.7726V29.9231H103.641H107.671H107.821V29.7726V14.0106H117.11V29.7726V29.9231H117.26H121.29H121.441V29.7726V13.7907V13.7284L121.397 13.6844L117.922 10.21L117.878 10.166H117.816H103.641H103.49V10.3164V29.7726Z" fill="white" stroke="white" stroke-width="0.300856"/>
<path id="Vector_7" d="M65.3886 29.7726V29.9231H65.5391H69.5693H69.7197V29.7726V14.0801H79.2279H79.3783V13.9297V10.3164V10.166H79.2279H69.0134H68.9511L68.907 10.21L65.4327 13.6844L65.3886 13.7284V13.7907V29.7726Z" fill="white" stroke="white" stroke-width="0.300856"/>
<path id="Vector_8" d="M45.9902 29.7721V29.9225H46.1406H50.1708H50.3213V29.7721V15.8274H61.5293H61.6798V15.677V12.2026V12.0522H61.5293H50.3213V5.63955H64.1592H64.3096V5.48913V1.94531V1.79488H64.1592H49.5455H49.4832L49.4391 1.83894L46.0343 5.24378L45.9902 5.28784V5.35015V29.7721Z" fill="white" stroke="white" stroke-width="0.300856"/>
<g id="Subtract_2">
<mask id="path-11-outside-1_1_902" maskUnits="userSpaceOnUse" x="80.7188" y="9.31641" width="20" height="21" fill="black">
<rect fill="white" x="80.7188" y="9.31641" width="20" height="21"/>
<path d="M81.7188 26.3678V13.7212L85.1236 10.3164L96.4671 10.3164L99.8719 13.7212V26.3678L96.4671 29.7726H85.1236L81.7188 26.3678ZM85.749 26.3678H95.8417V13.7212H85.749V26.3678Z"/>
</mask>
<path d="M81.7188 26.3678V13.7212L85.1236 10.3164L96.4671 10.3164L99.8719 13.7212V26.3678L96.4671 29.7726H85.1236L81.7188 26.3678ZM85.749 26.3678H95.8417V13.7212H85.749V26.3678Z" fill="white"/>
<path d="M81.7188 26.3678H81.4179V26.4924L81.506 26.5805L81.7188 26.3678ZM81.7188 13.7212L81.506 13.5085L81.4179 13.5966V13.7212H81.7188ZM85.1236 10.3164V10.0156H84.999L84.9109 10.1037L85.1236 10.3164ZM96.4671 10.3164L96.6798 10.1037L96.5917 10.0156H96.4671V10.3164ZM99.8719 13.7212H100.173V13.5966L100.085 13.5085L99.8719 13.7212ZM99.8719 26.3678L100.085 26.5805L100.173 26.4924V26.3678H99.8719ZM96.4671 29.7726V30.0735H96.5917L96.6798 29.9854L96.4671 29.7726ZM85.1236 29.7726L84.9109 29.9854L84.999 30.0735H85.1236V29.7726ZM85.749 26.3678H85.4481V26.6687H85.749V26.3678ZM95.8417 26.3678V26.6687H96.1426V26.3678H95.8417ZM95.8417 13.7212H96.1426V13.4204H95.8417V13.7212ZM85.749 13.7212V13.4204H85.4481V13.7212H85.749ZM82.0196 26.3678V13.7212H81.4179V26.3678H82.0196ZM81.9315 13.934L85.3363 10.5291L84.9109 10.1037L81.506 13.5085L81.9315 13.934ZM85.1236 10.6173H96.4671V10.0156H85.1236V10.6173ZM96.2544 10.5291L99.6592 13.934L100.085 13.5085L96.6798 10.1037L96.2544 10.5291ZM99.5711 13.7212V26.3678H100.173V13.7212H99.5711ZM99.6592 26.1551L96.2544 29.5599L96.6798 29.9854L100.085 26.5805L99.6592 26.1551ZM96.4671 29.4718H85.1236V30.0735H96.4671V29.4718ZM85.3363 29.5599L81.9315 26.1551L81.506 26.5805L84.9109 29.9854L85.3363 29.5599ZM85.749 26.6687H95.8417V26.0669H85.749V26.6687ZM96.1426 26.3678V13.7212H95.5409V26.3678H96.1426ZM95.8417 13.4204H85.749V14.0221H95.8417V13.4204ZM85.4481 13.7212V26.3678H86.0498V13.7212H85.4481Z" fill="white" mask="url(#path-11-outside-1_1_902)"/>
</g>
</g>
</g>
</g>
</g>
</g>
</g>
</svg>
