<svg width="156" height="156" viewBox="0 0 156 156" fill="none" xmlns="http://www.w3.org/2000/svg">
<g clip-path="url(#clip0_1_651)">
<circle cx="78" cy="78" r="78" fill="#FF5E2A"/>
<path fill-rule="evenodd" clip-rule="evenodd" d="M57.6669 46.0004H72.1465V57.7926H57.6669V72.1141H46V57.7926L57.6669 46.0004ZM46 83.8851H57.6669V98.2084H72.1484V110H57.6669L46 98.2084V83.8851ZM83.9194 110H98.3331L110 98.2084V83.8841H98.3331V98.2084H83.9194V110ZM98.3331 72.1132V57.7926H83.9174V46.0004H98.3331L110 57.7926V72.1132H98.3331Z" fill="#0B0B0B"/>
<circle cx="78.0006" cy="78.0029" r="9.44786" fill="#0B0B0B"/>
<path d="M133.322 99.7068L140.475 102.842L138.347 107.698L136.896 107.062L138.3 103.858L136.759 103.183L135.602 105.822L134.262 105.235L135.419 102.595L132.598 101.359L133.322 99.7068Z" fill="#0B0B0B"/>
<path d="M130.851 105.252L137.581 109.215L135.794 112.248C135.608 112.564 135.371 112.816 135.082 113.003C134.795 113.2 134.484 113.332 134.147 113.398C133.817 113.467 133.484 113.475 133.149 113.423C132.811 113.376 132.502 113.271 132.224 113.108C131.946 112.944 131.707 112.743 131.506 112.506C131.312 112.272 131.162 112.014 131.057 111.73C130.958 111.451 130.912 111.16 130.919 110.858L127.546 110.863L128.557 109.147L131.487 109.137L132.106 108.085L129.936 106.806L130.851 105.252ZM133.462 108.883L132.624 110.305C132.55 110.431 132.523 110.564 132.543 110.703C132.565 110.853 132.627 111 132.729 111.145C132.831 111.29 132.973 111.417 133.157 111.525C133.34 111.633 133.52 111.688 133.698 111.69C133.878 111.702 134.037 111.677 134.176 111.615C134.315 111.552 134.42 111.46 134.491 111.34L135.3 109.966L133.462 108.883Z" fill="#0B0B0B"/>
<path d="M124.551 114.717C124.919 114.26 125.337 113.914 125.807 113.68C126.279 113.457 126.768 113.328 127.275 113.293C127.784 113.269 128.279 113.333 128.759 113.484C129.246 113.639 129.686 113.876 130.081 114.193C130.486 114.519 130.813 114.903 131.059 115.346C131.301 115.794 131.457 116.267 131.527 116.766C131.598 117.274 131.567 117.781 131.434 118.286C131.302 118.791 131.058 119.263 130.705 119.703C130.342 120.155 129.925 120.492 129.454 120.716C128.984 120.95 128.494 121.079 127.986 121.103C127.473 121.133 126.973 121.07 126.486 120.914C126.006 120.763 125.574 120.534 125.191 120.226C124.785 119.9 124.459 119.516 124.212 119.073C123.966 118.63 123.807 118.155 123.736 117.646C123.671 117.142 123.701 116.635 123.829 116.126C123.957 115.627 124.198 115.157 124.551 114.717ZM128.913 115.611C128.679 115.423 128.422 115.273 128.144 115.163C127.872 115.057 127.597 115.001 127.32 114.994C127.038 114.994 126.766 115.052 126.502 115.17C126.238 115.287 126.003 115.474 125.796 115.732C125.58 116 125.444 116.276 125.386 116.559C125.334 116.846 125.343 117.127 125.415 117.401C125.487 117.674 125.606 117.93 125.772 118.168C125.94 118.415 126.138 118.631 126.367 118.815C126.602 119.003 126.855 119.15 127.127 119.256C127.4 119.362 127.677 119.415 127.958 119.416C128.246 119.421 128.519 119.363 128.776 119.241C129.034 119.119 129.264 118.932 129.467 118.68C129.682 118.412 129.819 118.136 129.877 117.853C129.93 117.576 129.924 117.298 129.857 117.018C129.791 116.749 129.674 116.49 129.506 116.243C129.339 116.005 129.142 115.795 128.913 115.611Z" fill="#0B0B0B"/>
<path d="M122.811 123.433L119.786 120.148L121.113 118.926L126.404 124.671L125.352 125.639L119.575 124.709L122.69 128.091L121.363 129.313L116.072 123.569L117.156 122.57L122.811 123.433Z" fill="#0B0B0B"/>
<path d="M113.052 133.398L115.002 132.041L111.445 126.931L112.926 125.9L116.483 131.01L118.442 129.647L119.347 130.947L113.957 134.698L113.052 133.398Z" fill="#0B0B0B"/>
<path d="M108.622 128.778L112.306 135.664L110.716 136.515L107.778 131.026L104.442 132.811L103.695 131.414L108.622 128.778Z" fill="#0B0B0B"/>
<path d="M102.433 131.929L105.478 139.122L103.816 139.825L100.772 132.633L102.433 131.929Z" fill="#0B0B0B"/>
<path d="M98.3489 138.312L97.0662 134.034L98.7942 133.516L101.037 140.997L99.6675 141.407L94.8804 138.042L96.201 142.447L94.473 142.965L92.2299 135.484L93.6418 135.061L98.3489 138.312Z" fill="#0B0B0B"/>
<path d="M84.9892 138.334L84.7434 136.77L90.166 135.918L91.3775 143.634L86.0528 144.47L85.8071 142.905L89.3496 142.349L89.1142 140.849L86.0714 141.327L85.8445 139.882L88.8872 139.404L88.6295 137.763L84.9892 138.334Z" fill="#0B0B0B"/>
<path d="M74.3588 136.95L73.5329 144.717L68.2607 144.156L68.4282 142.581L71.9066 142.951L72.0845 141.277L69.2187 140.972L69.3734 139.518L72.2392 139.822L72.5649 136.76L74.3588 136.95Z" fill="#0B0B0B"/>
<path d="M68.4455 136.285L66.7087 143.9L63.2768 143.117C62.9193 143.035 62.6076 142.885 62.3415 142.667C62.0667 142.454 61.847 142.197 61.6825 141.896C61.5163 141.602 61.4075 141.288 61.3561 140.953C61.2975 140.616 61.3041 140.29 61.3758 139.976C61.4476 139.661 61.5661 139.372 61.7315 139.109C61.8952 138.853 62.0961 138.632 62.3341 138.445C62.5706 138.266 62.8338 138.134 63.1238 138.05L62.0966 134.837L64.0378 135.28L64.9361 138.069L66.1265 138.34L66.6867 135.884L68.4455 136.285ZM65.7767 139.874L64.168 139.507C64.025 139.474 63.8901 139.489 63.7633 139.55C63.6277 139.617 63.5062 139.721 63.3988 139.862C63.2915 140.003 63.2141 140.177 63.1668 140.384C63.1195 140.591 63.1217 140.78 63.1732 140.95C63.216 141.125 63.2884 141.269 63.3903 141.383C63.4923 141.496 63.6112 141.569 63.7471 141.6L65.3021 141.954L65.7767 139.874Z" fill="#0B0B0B"/>
<path d="M57.3372 133.076C57.884 133.289 58.3397 133.584 58.7043 133.962C59.0595 134.343 59.3299 134.771 59.5157 135.245C59.692 135.722 59.7806 136.213 59.7815 136.717C59.7797 137.228 59.6872 137.719 59.5039 138.19C59.3153 138.676 59.0472 139.103 58.6995 139.471C58.3449 139.837 57.9406 140.128 57.4865 140.345C57.023 140.566 56.5305 140.689 56.0092 140.715C55.4878 140.74 54.964 140.651 54.4377 140.446C53.8977 140.237 53.4501 139.941 53.095 139.559C52.7304 139.181 52.46 138.754 52.2836 138.276C52.1005 137.796 52.0098 137.3 52.0116 136.789C52.0107 136.286 52.0993 135.805 52.2772 135.347C52.4658 134.861 52.734 134.434 53.0817 134.066C53.4294 133.698 53.835 133.403 54.2986 133.182C54.7595 132.968 55.252 132.844 55.7759 132.812C56.2904 132.784 56.8108 132.872 57.3372 133.076ZM57.7996 137.504C57.9085 137.224 57.9738 136.935 57.9953 136.636C58.0143 136.345 57.9849 136.066 57.9074 135.8C57.8231 135.531 57.6852 135.289 57.4937 135.073C57.3023 134.857 57.0528 134.689 56.7452 134.569C56.4239 134.444 56.1198 134.397 55.8327 134.427C55.543 134.464 55.2784 134.558 55.0388 134.709C54.7993 134.859 54.5914 135.05 54.4153 135.281C54.2297 135.515 54.0838 135.769 53.9775 136.043C53.8686 136.323 53.8047 136.609 53.7858 136.901C53.7669 137.192 53.7996 137.472 53.884 137.741C53.9657 138.017 54.1036 138.259 54.2977 138.468C54.4917 138.678 54.7392 138.841 55.0399 138.958C55.3612 139.082 55.6653 139.13 55.9524 139.1C56.2326 139.067 56.4959 138.977 56.7423 138.828C56.9792 138.684 57.1905 138.495 57.3761 138.26C57.5522 138.03 57.6934 137.778 57.7996 137.504Z" fill="#0B0B0B"/>
<path d="M48.432 134.015L50.6542 130.141L52.219 131.038L48.333 137.813L47.0925 137.101L46.2412 131.312L43.9533 135.301L42.3885 134.403L46.2746 127.628L47.5532 128.362L48.432 134.015Z" fill="#0B0B0B"/>
<path d="M36.0439 127.768L37.9294 129.214L41.7178 124.273L43.1494 125.371L39.361 130.312L41.2552 131.764L40.2914 133.021L35.08 129.025L36.0439 127.768Z" fill="#0B0B0B"/>
<path d="M39.1007 122.145L33.6394 127.728L32.3498 126.467L36.7035 122.016L33.9985 119.37L35.1062 118.238L39.1007 122.145Z" fill="#0B0B0B"/>
<path d="M34.2318 117.186L28.2766 122.239L27.1094 120.864L33.0646 115.811L34.2318 117.186Z" fill="#0B0B0B"/>
<path d="M26.9493 115.24L30.6427 112.729L31.6569 114.221L25.198 118.612L24.3941 117.429L26.162 111.851L22.3595 114.436L21.3452 112.944L27.8041 108.554L28.6328 109.773L26.9493 115.24Z" fill="#0B0B0B"/>
<path d="M22.92 102.526L24.3378 101.82L26.7856 106.733L19.7951 110.216L17.3915 105.391L18.8093 104.685L20.4084 107.895L21.7671 107.218L20.3936 104.461L21.7031 103.808L23.0766 106.565L24.5633 105.824L22.92 102.526Z" fill="#0B0B0B"/>
<path d="M21.0455 92.0233L13.3968 93.6021L12.325 88.4095L13.8763 88.0893L14.5834 91.5151L16.2316 91.1749L15.6491 88.3524L17.0818 88.0567L17.6644 90.8792L20.6809 90.2566L21.0455 92.0233Z" fill="#0B0B0B"/>
<path d="M19.8745 86.2017L12.093 86.8686L11.7924 83.3614C11.7611 82.9961 11.809 82.6534 11.9362 82.3334C12.0554 82.0067 12.2331 81.7191 12.4695 81.4707C12.6985 81.2229 12.9647 81.0235 13.2683 80.8723C13.5712 80.7139 13.8834 80.6209 14.2049 80.5933C14.5264 80.5658 14.8376 80.5906 15.1387 80.6679C15.4324 80.7457 15.7043 80.8696 15.9544 81.0396C16.1972 81.2101 16.4029 81.4207 16.5716 81.6712L19.3184 79.7135L19.4884 81.6972L17.1064 83.4028L17.2106 84.6194L19.7204 84.4043L19.8745 86.2017ZM15.6434 84.7537L15.5025 83.1097C15.49 82.9636 15.4352 82.8395 15.3381 82.7374C15.2331 82.6286 15.0971 82.5446 14.9301 82.4853C14.7631 82.426 14.5736 82.4055 14.3617 82.4236C14.1498 82.4418 13.9709 82.5013 13.825 82.6021C13.6712 82.6963 13.5557 82.8092 13.4787 82.9409C13.4017 83.0726 13.3691 83.2079 13.381 83.3467L13.5172 84.9359L15.6434 84.7537Z" fill="#0B0B0B"/>
<path d="M19.5401 74.8042C19.5046 75.3898 19.3626 75.9139 19.1142 76.3764C18.8589 76.8311 18.5342 77.2192 18.14 77.5406C17.739 77.8542 17.2987 78.0884 16.8191 78.243C16.3322 78.3971 15.8363 78.4589 15.3312 78.4283C14.8115 78.3968 14.3231 78.2718 13.8662 78.0531C13.4097 77.827 13.0089 77.5309 12.6637 77.1647C12.3117 76.7907 12.0439 76.3594 11.8605 75.8708C11.677 75.3821 11.6024 74.856 11.6365 74.2923C11.6716 73.7141 11.8167 73.1976 12.072 72.7428C12.3205 72.2803 12.6452 71.8923 13.0462 71.5786C13.4477 71.2576 13.8919 71.0201 14.3788 70.8659C14.8583 70.7113 15.3433 70.6488 15.8338 70.6785C16.3535 70.71 16.8418 70.8351 17.2988 71.0538C17.7557 71.2725 18.1602 71.5689 18.5122 71.9428C18.8569 72.3164 19.1247 72.7477 19.3154 73.2368C19.4993 73.7181 19.5742 74.2406 19.5401 74.8042ZM15.4642 76.596C15.7644 76.6142 16.0598 76.588 16.3506 76.5175C16.6341 76.4465 16.8907 76.3335 17.1205 76.1784C17.3508 76.0161 17.5395 75.8108 17.6868 75.5625C17.8341 75.3143 17.9177 75.0255 17.9377 74.6961C17.9585 74.3521 17.9108 74.048 17.7946 73.7838C17.671 73.5192 17.5009 73.2958 17.2842 73.1137C17.0674 72.9316 16.8224 72.7919 16.5492 72.6945C16.269 72.5894 15.9825 72.5279 15.6897 72.5102C15.3896 72.492 15.0978 72.5184 14.8143 72.5894C14.5309 72.6604 14.274 72.7771 14.0438 72.9394C13.8062 73.1014 13.6174 73.3067 13.4775 73.5553C13.3375 73.804 13.2578 74.0893 13.2383 74.4114C13.2174 74.7554 13.2651 75.0596 13.3814 75.3237C13.498 75.5806 13.6645 75.8037 13.8808 75.9932C14.0902 76.1748 14.335 76.3182 14.6151 76.4234C14.8884 76.5207 15.1714 76.5783 15.4642 76.596Z" fill="#0B0B0B"/>
<path d="M15.9373 66.6045L20.3026 67.5475L19.9216 69.3108L12.2877 67.6617L12.5897 66.2639L17.8482 63.6974L13.3539 62.7265L13.7348 60.9632L21.3687 62.6124L21.0575 64.0531L15.9373 66.6045Z" fill="#0B0B0B"/>
<path d="M18.0604 53.0676L17.2599 55.3047L23.122 57.4022L22.5142 59.1007L16.6522 57.0032L15.848 59.2507L14.3566 58.717L16.569 52.5339L18.0604 53.0676Z" fill="#0B0B0B"/>
<path d="M24.4135 54.0878L17.4264 50.5984L18.2324 48.9844L23.8024 51.7662L25.4931 48.3809L26.9102 49.0886L24.4135 54.0878Z" fill="#0B0B0B"/>
<path d="M27.7415 47.7413L21.1206 43.5989L22.0774 42.0695L28.6983 46.212L27.7415 47.7413Z" fill="#0B0B0B"/>
<path d="M27.2408 40.4064L30.7539 43.1639L29.64 44.5829L23.4965 39.7607L24.3795 38.6358L30.2309 38.6281L26.614 35.7891L27.7279 34.37L33.8713 39.1923L32.9612 40.3517L27.2408 40.4064Z" fill="#0B0B0B"/>
<path d="M38.2937 32.5214L39.3925 33.6623L35.4389 37.47L30.0212 31.8447L33.9034 28.1057L35.0022 29.2466L32.4194 31.7342L33.4724 32.8275L35.6908 30.691L36.7057 31.7447L34.4873 33.8813L35.6395 35.0777L38.2937 32.5214Z" fill="#0B0B0B"/>
<path d="M47.8165 27.5294L44.0321 20.6975L48.6701 18.1284L49.4376 19.514L46.3777 21.209L47.1932 22.6812L49.7143 21.2847L50.4232 22.5645L47.9022 23.961L49.3946 26.6552L47.8165 27.5294Z" fill="#0B0B0B"/>
<path d="M52.9691 24.695L50.003 17.4702L53.2593 16.1334C53.5985 15.9941 53.9398 15.9372 54.2832 15.9627C54.6306 15.9786 54.9582 16.0622 55.266 16.2133C55.571 16.3576 55.841 16.5519 56.0761 16.7963C56.318 17.0379 56.5002 17.3079 56.6227 17.6064C56.7453 17.9049 56.8148 18.2093 56.8312 18.5196C56.8448 18.8232 56.808 19.1197 56.7207 19.4092C56.6307 19.6919 56.4914 19.9513 56.3029 20.1872L58.9932 22.2219L57.1514 22.9781L54.8108 21.2159L53.6813 21.6796L54.6379 24.0099L52.9691 24.695ZM53.0839 20.2245L54.6103 19.5979C54.7459 19.5422 54.848 19.4527 54.9163 19.3295C54.9886 19.1968 55.0281 19.0419 55.0347 18.8648C55.0412 18.6877 55.0041 18.5008 54.9234 18.304C54.8426 18.1073 54.7323 17.9544 54.5924 17.8454C54.4565 17.7268 54.3142 17.6504 54.1654 17.6164C54.0167 17.5823 53.8778 17.5917 53.749 17.6446L52.2734 18.2504L53.0839 20.2245Z" fill="#0B0B0B"/>
<path d="M63.6513 20.9682C63.0825 21.112 62.5401 21.1356 62.0241 21.039C61.5134 20.9336 61.0451 20.7418 60.6193 20.4636C60.1988 20.1766 59.8422 19.828 59.5495 19.4178C59.255 19.0006 59.0458 18.5467 58.9218 18.0561C58.7943 17.5513 58.7654 17.0481 58.8353 16.5463C58.9123 16.0428 59.073 15.571 59.3173 15.1311C59.5669 14.6823 59.8968 14.2964 60.3068 13.9734C60.7169 13.6505 61.1956 13.4198 61.7431 13.2815C62.3048 13.1396 62.841 13.1213 63.3517 13.2267C63.8677 13.3233 64.336 13.5151 64.7565 13.8021C65.184 14.0874 65.5451 14.4387 65.8396 14.8559C66.1323 15.266 66.3389 15.7093 66.4593 16.1856C66.5868 16.6904 66.6156 17.1937 66.5458 17.6954C66.4759 18.1972 66.3161 18.6725 66.0665 19.1213C65.815 19.563 65.4852 19.9489 65.0769 20.279C64.674 20.6002 64.1988 20.8299 63.6513 20.9682ZM60.7082 17.6274C60.7819 17.9189 60.8964 18.1926 61.0518 18.4483C61.2054 18.6969 61.3909 18.9072 61.6083 19.0792C61.8328 19.2494 62.0857 19.367 62.3669 19.4321C62.648 19.4972 62.9486 19.4893 63.2686 19.4085C63.6027 19.324 63.8781 19.1864 64.0946 18.9955C64.3093 18.7976 64.4705 18.5677 64.5784 18.306C64.6862 18.0443 64.7451 17.7685 64.755 17.4785C64.7703 17.1797 64.742 16.8881 64.6701 16.6037C64.5965 16.3122 64.4829 16.0421 64.3293 15.7935C64.1757 15.5449 63.9866 15.3355 63.7621 15.1653C63.5358 14.988 63.2829 14.8703 63.0035 14.8124C62.7241 14.7544 62.428 14.7649 62.1152 14.8439C61.781 14.9284 61.5057 15.066 61.2892 15.2569C61.0798 15.4459 60.9176 15.6722 60.8027 15.9357C60.693 16.1904 60.6306 16.4671 60.6153 16.7659C60.6054 17.0559 60.6364 17.343 60.7082 17.6274Z" fill="#0B0B0B"/>
<path d="M70.3247 15.0405L70.7556 19.4857L68.96 19.6597L68.2065 11.8862L69.6299 11.7482L73.6756 15.9756L73.232 11.3991L75.0276 11.2251L75.781 18.9986L74.3139 19.1408L70.3247 15.0405Z" fill="#0B0B0B"/>
<path d="M83.9509 12.9535L81.5766 12.8635L81.3407 19.0851L79.538 19.0167L79.7739 12.7952L77.3886 12.7048L77.4486 11.1219L84.0109 11.3707L83.9509 12.9535Z" fill="#0B0B0B"/>
<path d="M84.5795 19.2684L85.7882 11.5525L87.5705 11.8317L86.6069 17.9827L90.3453 18.5683L90.1001 20.1332L84.5795 19.2684Z" fill="#0B0B0B"/>
<path d="M91.3411 20.4427L93.2529 12.8703L95.0021 13.3119L93.0902 20.8843L91.3411 20.4427Z" fill="#0B0B0B"/>
<path d="M98.8608 17.9203L97.2915 22.1015L95.6025 21.4676L98.3469 14.1557L99.6857 14.6582L101.458 20.2346L103.074 15.9298L104.763 16.5638L102.019 23.8757L100.639 23.3577L98.8608 17.9203Z" fill="#0B0B0B"/>
<path d="M109.482 25.953L108.732 27.3477L103.899 24.7454L107.601 17.8689L112.347 20.4243L111.596 21.8189L108.439 20.1188L107.719 21.4554L110.431 22.9156L109.737 24.2037L107.025 22.7435L106.238 24.206L109.482 25.953Z" fill="#0B0B0B"/>
<path d="M117.12 33.4258L122.476 27.7418L126.334 31.378L125.248 32.5308L122.702 30.1318L121.548 31.3567L123.646 33.3332L122.642 34.3979L120.545 32.4214L118.433 34.663L117.12 33.4258Z" fill="#0B0B0B"/>
<path d="M121.495 37.5739L127.487 32.5651L129.745 35.2658C129.98 35.5472 130.137 35.8554 130.216 36.1905C130.306 36.5265 130.325 36.864 130.274 37.203C130.229 37.5374 130.125 37.8535 129.963 38.1513C129.806 38.4549 129.603 38.7101 129.356 38.917C129.108 39.124 128.839 39.2821 128.548 39.3914C128.263 39.4961 127.969 39.5505 127.667 39.5547C127.37 39.5542 127.081 39.4997 126.799 39.3912L125.671 42.5703L124.394 41.0427L125.368 38.2793L124.585 37.3425L122.652 38.958L121.495 37.5739ZM125.791 36.3337L126.85 37.5997C126.944 37.7122 127.06 37.7824 127.198 37.8104C127.346 37.8393 127.506 37.8301 127.677 37.7829C127.848 37.7357 128.015 37.6439 128.178 37.5075C128.341 37.3712 128.453 37.2198 128.515 37.0535C128.587 36.8882 128.617 36.7295 128.604 36.5774C128.592 36.4253 128.541 36.2958 128.452 36.1889L127.429 34.9651L125.791 36.3337Z" fill="#0B0B0B"/>
<path d="M128.314 46.6834C128.006 46.1842 127.82 45.674 127.757 45.1529C127.704 44.6341 127.746 44.1298 127.883 43.6401C128.03 43.1527 128.255 42.7077 128.558 42.3051C128.867 41.8987 129.237 41.5625 129.668 41.2966C130.111 41.0231 130.582 40.8441 131.082 40.7597C131.585 40.6816 132.083 40.6928 132.576 40.7934C133.079 40.8964 133.547 41.0948 133.978 41.3886C134.409 41.6824 134.774 42.0696 135.07 42.55C135.375 43.0429 135.553 43.5488 135.607 44.0675C135.67 44.5887 135.628 45.093 135.481 45.5803C135.337 46.074 135.111 46.524 134.802 46.9304C134.499 47.333 134.138 47.6634 133.72 47.9216C133.277 48.1951 132.806 48.3741 132.306 48.4585C131.807 48.5429 131.306 48.5336 130.802 48.4306C130.306 48.3238 129.838 48.1254 129.401 47.8354C128.973 47.5478 128.611 47.1638 128.314 46.6834ZM130.614 42.8712C130.358 43.0292 130.132 43.2207 129.935 43.4459C129.744 43.6672 129.599 43.9074 129.501 44.1665C129.406 44.4318 129.37 44.7084 129.393 44.9961C129.415 45.2838 129.513 45.5681 129.686 45.8489C129.868 46.1421 130.082 46.3633 130.329 46.5123C130.582 46.6575 130.85 46.7421 131.132 46.7661C131.414 46.7902 131.695 46.7633 131.974 46.6855C132.264 46.6101 132.534 46.4954 132.783 46.3412C133.039 46.1833 133.262 45.9936 133.453 45.7723C133.644 45.551 133.787 45.3077 133.881 45.0424C133.982 44.7732 134.018 44.4966 133.99 44.2128C133.961 43.9289 133.862 43.6497 133.692 43.3751C133.511 43.0819 133.297 42.8607 133.05 42.7117C132.806 42.5689 132.542 42.4824 132.256 42.4521C131.98 42.4242 131.697 42.4479 131.408 42.5233C131.128 42.6011 130.864 42.7171 130.614 42.8712Z" fill="#0B0B0B"/>
<path d="M135.953 51.1845L131.846 52.9405L131.137 51.2818L138.318 48.211L138.88 49.5259L136.076 54.6612L140.303 52.8534L141.012 54.5121L133.831 57.5828L133.252 56.2275L135.953 51.1845Z" fill="#0B0B0B"/>
<path d="M142.125 63.7354L141.492 61.4451L135.491 63.1022L135.011 61.3633L141.012 59.7061L140.377 57.4053L141.904 56.9836L143.651 63.3137L142.125 63.7354Z" fill="#0B0B0B"/>
<path d="M136.313 66.3662L144.032 65.1831L144.306 66.9662L138.152 67.9094L138.725 71.6497L137.159 71.8897L136.313 66.3662Z" fill="#0B0B0B"/>
<path d="M137.236 73.2544L145.032 72.7903L145.139 74.5911L137.343 75.0552L137.236 73.2544Z" fill="#0B0B0B"/>
<path d="M141.909 79.1314L137.448 78.9118L137.537 77.11L145.338 77.494L145.267 78.9223L140.497 82.3108L145.089 82.5369L145.001 84.3388L137.2 83.9547L137.273 82.4825L141.909 79.1314Z" fill="#0B0B0B"/>
<path d="M137.468 91.8378L135.912 91.545L136.926 86.1506L144.602 87.5945L143.605 92.8916L142.048 92.5988L142.711 89.0746L141.22 88.7939L140.65 91.8208L139.212 91.5503L139.782 88.5234L138.15 88.2164L137.468 91.8378Z" fill="#0B0B0B"/>
<circle cx="41.5017" cy="27.4988" r="1.5" fill="#0B0B0B"/>
<circle cx="115.5" cy="27.5" r="1.5" fill="#0B0B0B"/>
<circle cx="79.498" cy="141.5" r="1.5" fill="#0B0B0B"/>
<circle cx="138.502" cy="96.5004" r="1.5" fill="#0B0B0B"/>
<circle cx="18.498" cy="98.5005" r="1.5" fill="#0B0B0B"/>
</g>
<defs>
<clipPath id="clip0_1_651">
<rect width="156" height="156" fill="white"/>
</clipPath>
</defs>
</svg>
