<svg width="156" height="156" viewBox="0 0 156 156" fill="none" xmlns="http://www.w3.org/2000/svg">
<g clip-path="url(#clip0_1_130)">
<circle cx="78" cy="78" r="78" fill="#FF5E2A"/>
<path d="M18.3542 69.4493C18.2484 70.1777 18.0066 70.8135 17.6286 71.3568C17.2517 71.8923 16.7773 72.2922 16.2054 72.5568L15.5149 70.9651C15.8354 70.8176 16.1052 70.6021 16.3242 70.3187C16.5364 70.0261 16.6724 69.674 16.7322 69.2623C16.8 68.7952 16.7544 68.441 16.5955 68.1997C16.4365 67.9583 16.2105 67.8164 15.9176 67.7738C15.7197 67.7451 15.5386 67.7673 15.3744 67.8405C15.2113 67.9057 15.0758 68.0316 14.9679 68.218C14.8533 68.3954 14.7741 68.6345 14.7304 68.9353L14.5735 70.016L13.1128 69.8039L13.2715 68.7114C13.3071 68.466 13.3008 68.2589 13.2525 68.0902C13.1963 67.9204 13.1101 67.7906 12.9937 67.701C12.8706 67.6023 12.722 67.5403 12.5478 67.515C12.3737 67.4897 12.2169 67.5114 12.0776 67.5801C11.9315 67.6397 11.8102 67.7515 11.7137 67.9153C11.6092 68.078 11.5369 68.2979 11.4966 68.575C11.4323 69.0183 11.4608 69.4064 11.5822 69.7393C11.7037 70.0722 11.8835 70.3368 12.1218 70.5331L10.9191 71.8015C10.4799 71.3739 10.1518 70.8776 9.93478 70.3126C9.71094 69.7385 9.65765 69.0477 9.77489 68.2401C9.86569 67.6147 10.0304 67.0929 10.2689 66.6749C10.5074 66.2568 10.8181 65.9543 11.201 65.7674C11.577 65.5714 12.0184 65.5101 12.5251 65.5837C12.8893 65.6366 13.2284 65.7788 13.5423 66.0103C13.8496 66.2327 14.0683 66.5636 14.1985 67.0029C14.4009 66.5553 14.6987 66.2307 15.0917 66.0291C15.4848 65.8275 15.9188 65.7611 16.3938 65.8301C16.9243 65.9071 17.3509 66.1146 17.6737 66.4524C17.9886 66.7892 18.2054 67.2168 18.3241 67.7352C18.435 68.2525 18.445 68.8239 18.3542 69.4493Z" fill="#0B0B0B"/>
<path d="M20.8443 58.5096L15.9859 57.0393L18.9916 59.8672L18.6788 60.9009L14.6095 61.5876L19.4679 63.0579L18.8978 64.9415L10.7431 62.4737L11.3618 60.4292L16.2625 59.6054L12.6443 56.1911L13.2596 54.1581L21.4143 56.626L20.8443 58.5096Z" fill="#0B0B0B"/>
<path d="M22.141 55.1099L14.3192 51.7321L15.0994 49.9254L22.9212 53.3032L22.141 55.1099Z" fill="#0B0B0B"/>
<path d="M19.6396 41.2541L27.0802 45.4046L26.1215 47.1233L23.0719 45.4222L21.4176 48.388L24.4672 50.0891L23.5085 51.8078L16.0678 47.6573L17.0265 45.9386L19.9085 47.5462L21.5628 44.5804L18.6809 42.9728L19.6396 41.2541Z" fill="#0B0B0B"/>
<path d="M31.9459 39.112C31.5039 39.66 31.0008 40.061 30.4363 40.3149C29.8706 40.5576 29.2718 40.6502 28.6398 40.5928C28.0129 40.5291 27.3865 40.3118 26.7608 39.9408L26.0301 40.8469L28.711 43.0088L27.4757 44.5408L20.8434 39.1926L22.0787 37.6606L24.6943 39.7698L25.4325 38.8543C24.9361 38.3102 24.6047 37.7398 24.4384 37.1432C24.272 36.5465 24.2593 35.9505 24.4003 35.3551C24.5401 34.7485 24.8209 34.1836 25.2427 33.6605C25.7449 33.0377 26.3219 32.6089 26.9738 32.374C27.6256 32.1392 28.3067 32.0975 29.017 32.2489C29.7324 32.3941 30.4294 32.7404 31.1082 33.2878C31.8369 33.8753 32.3423 34.5038 32.6246 35.1734C32.9068 35.8429 32.9848 36.5172 32.8585 37.1964C32.7372 37.8694 32.433 38.5079 31.9459 39.112ZM30.5896 38.0029C30.8708 37.6541 31.0177 37.2999 31.0303 36.9401C31.0418 36.5691 30.9432 36.207 30.7347 35.8538C30.525 35.4894 30.2208 35.1466 29.8223 34.8252C29.4112 34.4937 29.0092 34.2723 28.616 34.1608C28.2217 34.0381 27.8538 34.0292 27.5123 34.134C27.1646 34.2339 26.8551 34.452 26.584 34.7882C26.3128 35.1245 26.1684 35.4757 26.1507 35.8417C26.1318 36.1964 26.2242 36.5535 26.4277 36.9129C26.6362 37.266 26.9429 37.6058 27.3476 37.9322C27.7524 38.2586 28.152 38.4832 28.5463 38.6059C28.9407 38.7286 29.3148 38.7426 29.6688 38.6477C30.0165 38.5479 30.3234 38.3329 30.5896 38.0029Z" fill="#0B0B0B"/>
<path d="M38.2558 32.7241C37.775 33.1466 37.2601 33.4393 36.711 33.6022C36.1567 33.7591 35.601 33.8054 35.044 33.7411C34.4877 33.6655 33.9628 33.4984 33.4693 33.2398C32.9766 32.9699 32.5454 32.6246 32.1757 32.2039C31.8272 31.8073 31.5558 31.3589 31.3613 30.8588C31.1669 30.3588 31.0728 29.8397 31.0792 29.3016C31.0864 28.7522 31.2091 28.2131 31.4473 27.6843C31.6915 27.1502 32.0781 26.6508 32.6069 26.1861C33.2139 25.6528 33.8533 25.32 34.5251 25.1876C35.1968 25.0553 35.8231 25.1014 36.4038 25.326L35.965 27.1173C35.6742 26.9681 35.3892 26.9044 35.11 26.926C34.8369 26.9424 34.583 27.011 34.3485 27.1319C34.1146 27.2415 33.9076 27.3755 33.7273 27.5339C33.5109 27.724 33.3417 27.9313 33.2195 28.1559C33.098 28.3691 33.0213 28.5909 32.9894 28.8212C32.9575 29.0516 32.9652 29.2845 33.0123 29.52C33.0602 29.7441 33.1423 29.9649 33.2587 30.1821L35.3681 28.3287L36.4057 29.5096L34.2602 31.3947C34.4645 31.5666 34.6883 31.7001 34.9316 31.7952C35.1809 31.885 35.4331 31.9296 35.6882 31.9291C35.9433 31.9285 36.1957 31.8825 36.4454 31.7909C36.6951 31.6993 36.9251 31.5611 37.1354 31.3763C37.3217 31.2126 37.4816 31.0189 37.6151 30.7951C37.7546 30.566 37.847 30.3197 37.8924 30.0562C37.9385 29.7815 37.9142 29.4993 37.8195 29.2097L39.6532 28.8605C39.8016 29.2839 39.8262 29.7362 39.7271 30.2173C39.628 30.6984 39.448 31.1601 39.187 31.6024C38.9268 32.0334 38.6164 32.4073 38.2558 32.7241Z" fill="#0B0B0B"/>
<path d="M47.3392 26.0298L44.6079 21.7512L45.0491 25.8545L44.1387 26.4356L40.6025 24.3081L43.3337 28.5867L41.6749 29.6456L37.0905 22.4641L38.891 21.3148L43.1476 23.8793L42.6233 18.9322L44.4137 17.7894L48.998 24.9709L47.3392 26.0298Z" fill="#0B0B0B"/>
<path d="M53.8795 22.8139C53.2917 23.0671 52.7115 23.1863 52.139 23.1716C51.5707 23.1464 51.0331 23.0208 50.5264 22.7948C50.0238 22.5583 49.5795 22.2445 49.1932 21.8534C48.8038 21.4549 48.4999 21.0022 48.2816 20.4953C48.0569 19.9736 47.9388 19.4365 47.9273 18.884C47.9231 18.3283 48.0146 17.7924 48.2016 17.2763C48.3929 16.7497 48.6815 16.277 49.0673 15.8582C49.4531 15.4394 49.9288 15.1082 50.4946 14.8645C51.075 14.6145 51.6494 14.5021 52.2178 14.5273C52.7903 14.542 53.3278 14.6676 53.8304 14.9041C54.3403 15.1374 54.7899 15.4533 55.1793 15.8518C55.5655 16.2429 55.8647 16.6846 56.0767 17.1768C56.3014 17.6985 56.4195 18.2356 56.431 18.7881C56.4425 19.3406 56.3527 19.8802 56.1614 20.4068C55.967 20.9261 55.6784 21.3988 55.2958 21.8249C54.9173 22.2406 54.4452 22.5702 53.8795 22.8139ZM50.1316 19.7245C50.2614 20.0258 50.432 20.3007 50.6436 20.5492C50.8521 20.7905 51.0882 20.9849 51.3522 21.1325C51.6234 21.277 51.9161 21.36 52.2303 21.3815C52.5444 21.403 52.8668 21.3425 53.1974 21.2001C53.5427 21.0513 53.8155 20.8554 54.0157 20.6124C54.2127 20.3621 54.3467 20.0866 54.4176 19.786C54.4884 19.4855 54.5042 19.1782 54.4647 18.8642C54.4295 18.5397 54.3485 18.2304 54.222 17.9365C54.0922 17.6353 53.9231 17.3641 53.7147 17.1228C53.5062 16.8816 53.2664 16.6888 52.9951 16.5443C52.7207 16.3925 52.428 16.3095 52.117 16.2954C51.806 16.2812 51.4889 16.3438 51.1656 16.483C50.8203 16.6318 50.5475 16.8277 50.3473 17.0707C50.1545 17.3105 50.019 17.5823 49.9407 17.8861C49.8667 18.1793 49.8473 18.4881 49.8826 18.8127C49.922 19.1267 50.005 19.4306 50.1316 19.7245Z" fill="#0B0B0B"/>
<path d="M61.1402 11.2674L63.5852 13.7333L64.7472 10.4609L66.8317 9.99484L65.0223 14.8261L68.5971 18.3305L66.5126 18.7966L64.1875 16.4268L63.093 19.5611L60.9968 20.0298L62.7387 15.3367L59.044 11.7361L61.1402 11.2674Z" fill="#0B0B0B"/>
<path d="M69.2127 18.363L68.1498 9.9096L70.1024 9.66407L71.1654 18.1175L69.2127 18.363Z" fill="#0B0B0B"/>
<path d="M72.2526 19.4792L72.1928 16.1197L72.6727 16.1112C72.8807 16.1075 73.0592 16.0243 73.2084 15.8616C73.3653 15.6908 73.4968 15.4324 73.6026 15.0865C73.7083 14.7325 73.7884 14.283 73.8427 13.738C73.8968 13.1849 73.9291 12.5242 73.9394 11.7559L73.9676 9.29504L79.8707 9.18998L79.9916 15.9809L81.1554 15.9602L81.2152 19.3197L79.4874 19.3504L79.4584 17.7187L73.9393 17.8169L73.9683 19.4486L72.2526 19.4792ZM74.9763 16.0702L78.0239 16.0159L77.9337 10.9527L75.7861 10.9909L75.78 11.9992C75.777 12.7274 75.7482 13.36 75.6938 13.8971C75.6472 14.426 75.5671 14.8715 75.4535 15.2335C75.3398 15.5876 75.1808 15.8665 74.9763 16.0702Z" fill="#0B0B0B"/>
<path d="M92.3886 17.1863C92.3018 17.6665 92.0993 18.0445 91.7812 18.3203C91.4724 18.5897 91.0872 18.7639 90.6258 18.8431C90.1643 18.9223 89.6738 18.9149 89.1542 18.821L85.0685 18.0823L86.5841 9.69823L91.2485 10.5415C91.6422 10.6126 91.9615 10.7801 92.2064 11.0439C92.4607 11.3012 92.6327 11.6087 92.7226 11.9664C92.8202 12.3255 92.837 12.6822 92.773 13.0365C92.7018 13.4301 92.5312 13.7894 92.261 14.1146C91.9923 14.4318 91.6448 14.6454 91.2184 14.7553C91.673 14.9838 92.0054 15.3041 92.2154 15.716C92.4334 16.1294 92.4911 16.6195 92.3886 17.1863ZM90.487 16.4401C90.5198 16.259 90.5128 16.0952 90.4662 15.9485C90.4209 15.794 90.3464 15.6667 90.2425 15.5667C90.148 15.4601 90.022 15.3926 89.8645 15.3642L87.6327 14.9607L87.3018 16.791L89.451 17.1796C89.6163 17.2094 89.769 17.1964 89.9092 17.1405C90.0573 17.0859 90.1828 16.9989 90.2857 16.8793C90.3886 16.7597 90.4557 16.6133 90.487 16.4401ZM88.2219 11.7015L87.9081 13.4374L89.8093 13.7811C89.951 13.8067 90.0866 13.7987 90.216 13.7571C90.3534 13.7169 90.4728 13.6409 90.5743 13.5292C90.6772 13.4096 90.7464 13.2514 90.782 13.0546C90.8162 12.8656 90.8092 12.7018 90.7611 12.563C90.7209 12.4257 90.6514 12.3155 90.5526 12.2326C90.4552 12.1419 90.3356 12.0837 90.1939 12.058L88.2219 11.7015Z" fill="#0B0B0B"/>
<path d="M93.4439 19.7896L95.7869 11.5981L97.679 12.1393L95.336 20.3308L93.4439 19.7896Z" fill="#0B0B0B"/>
<path d="M96.9029 20.6815L100.133 12.7974L101.954 13.5434L99.7839 18.8402L105.352 14.9353L107.051 15.6313L103.821 23.5154L102 22.7694L104.156 17.5059L98.6463 21.3957L96.9029 20.6815ZM103.77 13.7946C103.333 13.6157 102.975 13.3825 102.695 13.0949C102.426 12.803 102.251 12.4896 102.172 12.1547C102.097 11.8123 102.127 11.4746 102.263 11.1415L103.474 11.6373C103.383 11.8594 103.386 12.0942 103.483 12.3416C103.584 12.5816 103.801 12.7698 104.134 12.9063C104.467 13.0428 104.752 13.0644 104.989 12.9713C105.233 12.8812 105.406 12.714 105.506 12.4697L106.716 12.9656C106.58 13.2987 106.364 13.5606 106.07 13.7513C105.779 13.9346 105.431 14.0342 105.027 14.0502C104.633 14.0618 104.214 13.9766 103.77 13.7946Z" fill="#0B0B0B"/>
<path d="M116.102 20.7184L111.759 28.0486L110.066 27.0454L111.846 24.0411L108.924 22.3101L107.144 25.3144L105.451 24.3113L109.794 16.9812L111.487 17.9843L109.805 20.8235L112.726 22.5544L114.408 19.7153L116.102 20.7184Z" fill="#0B0B0B"/>
<path d="M112.645 28.6385L118.018 22.0258L119.545 23.2668L115.936 27.7094L122.395 25.5822L123.82 26.7399L118.448 33.3526L116.92 32.1116L120.507 27.697L114.107 29.8265L112.645 28.6385Z" fill="#0B0B0B"/>
<path d="M121.756 36.634L128.257 31.1275L130.607 33.9021C130.871 34.2134 131.047 34.5515 131.136 34.9165C131.236 35.2824 131.26 35.6505 131.206 36.0207C131.159 36.3857 131.048 36.7313 130.874 37.0574C130.699 37.3835 130.474 37.6629 130.2 37.8956C129.827 38.211 129.398 38.4223 128.913 38.5297C128.432 38.6431 127.953 38.6347 127.476 38.5043C127.01 38.3749 126.598 38.0995 126.241 37.6783L125.125 36.3597L123.028 38.1358L121.756 36.634ZM126.434 35.2507L127.473 36.4777C127.572 36.5937 127.696 36.6721 127.846 36.7129C127.995 36.7537 128.163 36.7477 128.349 36.695C128.535 36.6423 128.726 36.5332 128.921 36.3678C129.123 36.1971 129.257 36.0209 129.323 35.8391C129.4 35.6582 129.423 35.4869 129.391 35.3253C129.364 35.1699 129.302 35.0341 129.203 34.9181L128.211 33.7461L126.434 35.2507Z" fill="#0B0B0B"/>
<path d="M134.781 39.4226L135.95 41.1961L130.447 48.3294L129.338 46.6461L130.568 45.0451L129.108 42.8307L127.159 43.3396L126.049 41.6564L134.781 39.4226ZM131.522 44.0283L133.709 41.3939L130.412 42.345L131.522 44.0283Z" fill="#0B0B0B"/>
<path d="M131.77 51.3058C131.444 50.6458 131.283 49.9848 131.287 49.323C131.294 48.6683 131.458 48.0699 131.779 47.5278L133.25 48.4479C133.07 48.7511 132.969 49.0815 132.95 49.4392C132.94 49.8005 133.028 50.1676 133.212 50.5407C133.421 50.964 133.659 51.23 133.927 51.3388C134.195 51.4475 134.461 51.4364 134.727 51.3055C134.906 51.217 135.043 51.0961 135.137 50.9427C135.234 50.7966 135.274 50.6161 135.257 50.4013C135.251 50.1902 135.181 49.9483 135.047 49.6757L134.564 48.6964L135.887 48.0434L136.376 49.0334C136.485 49.2558 136.608 49.4229 136.743 49.5345C136.886 49.6426 137.03 49.7006 137.177 49.7085C137.334 49.7201 137.492 49.687 137.65 49.6091C137.808 49.5312 137.925 49.4245 138 49.2889C138.087 49.157 138.124 48.9962 138.11 48.8065C138.104 48.6133 138.039 48.3911 137.915 48.14C137.717 47.7383 137.474 47.4347 137.185 47.2292C136.896 47.0237 136.598 46.9076 136.291 46.881L136.563 45.1543C137.167 45.2577 137.718 45.4807 138.217 45.8233C138.727 46.1694 139.163 46.7084 139.524 47.4402C139.803 48.007 139.963 48.5302 140.004 49.0098C140.044 49.4895 139.959 49.9148 139.75 50.2857C139.551 50.6603 139.222 50.9609 138.763 51.1874C138.433 51.3503 138.073 51.4253 137.683 51.4124C137.304 51.4033 136.936 51.2546 136.58 50.9665C136.667 51.45 136.606 51.8861 136.396 52.275C136.186 52.6639 135.866 52.9645 135.436 53.1768C134.955 53.414 134.486 53.4848 134.029 53.3894C133.578 53.2904 133.157 53.061 132.766 52.7011C132.381 52.3377 132.049 51.8726 131.77 51.3058Z" fill="#0B0B0B"/>
<path d="M134.885 58.8049C134.685 58.1969 134.618 57.6084 134.683 57.0395C134.759 56.4757 134.932 55.9514 135.202 55.4668C135.482 54.9873 135.835 54.5726 136.259 54.2228C136.69 53.8704 137.168 53.608 137.692 53.4356C138.232 53.2583 138.778 53.1884 139.329 53.2262C139.883 53.2715 140.408 53.4103 140.906 53.6426C141.413 53.88 141.858 54.2094 142.241 54.631C142.624 55.0525 142.912 55.5559 143.104 56.1411C143.301 56.7415 143.362 57.3236 143.286 57.8874C143.221 58.4564 143.048 58.9806 142.767 59.4601C142.49 59.9472 142.135 60.367 141.704 60.7193C141.28 61.0692 140.813 61.3278 140.304 61.4952C139.764 61.6726 139.219 61.7424 138.667 61.7047C138.116 61.667 137.587 61.5294 137.079 61.292C136.579 61.0521 136.134 60.7227 135.744 60.3036C135.363 59.8897 135.077 59.3901 134.885 58.8049ZM138.295 55.3469C137.984 55.4493 137.695 55.5949 137.428 55.7835C137.17 55.9696 136.955 56.1876 136.784 56.4373C136.616 56.6946 136.508 56.9788 136.458 57.2898C136.409 57.6007 136.44 57.9272 136.553 58.2692C136.67 58.6264 136.841 58.9155 137.065 59.1366C137.297 59.3551 137.56 59.513 137.853 59.6104C138.146 59.7077 138.45 59.7508 138.767 59.7394C139.093 59.7332 139.408 59.6801 139.712 59.5802C140.024 59.4778 140.309 59.3335 140.568 59.1474C140.827 58.9612 141.04 58.7395 141.208 58.4822C141.384 58.2223 141.492 57.9382 141.534 57.6297C141.576 57.3212 141.542 56.9998 141.432 56.6654C141.315 56.3082 141.144 56.0191 140.92 55.798C140.698 55.5846 140.439 55.4254 140.144 55.3205C139.858 55.2206 139.552 55.1738 139.226 55.18C138.91 55.1914 138.599 55.247 138.295 55.3469Z" fill="#0B0B0B"/>
<path d="M137.676 70.6329L142.691 69.8465L138.755 68.6052L138.588 67.5383L141.955 65.1518L136.94 65.9383L136.635 63.994L145.052 62.674L145.383 64.7843L141.327 67.6553L146.069 69.1588L146.398 71.2571L137.981 72.5771L137.676 70.6329Z" fill="#0B0B0B"/>
<path d="M9.55174 87.9395C9.43897 87.2122 9.48349 86.5334 9.6853 85.903C9.88833 85.2805 10.2244 84.7589 10.6934 84.3381L11.8208 85.6569C11.5577 85.892 11.3631 86.1772 11.237 86.5125C11.12 86.8544 11.0934 87.2309 11.1571 87.642C11.2294 88.1085 11.377 88.4337 11.5998 88.6177C11.8227 88.8018 12.0803 88.8711 12.3728 88.8257C12.5705 88.7951 12.737 88.7207 12.8725 88.6025C13.0093 88.4923 13.1018 88.3322 13.1502 88.1223C13.2078 87.9191 13.2133 87.6673 13.1667 87.3669L12.9994 86.2878L14.458 86.0616L14.6271 87.1526C14.6651 87.3977 14.7319 87.5938 14.8276 87.7408C14.9312 87.8867 15.0517 87.9854 15.1892 88.0369C15.3359 88.0951 15.4962 88.1108 15.6701 88.0838C15.844 88.0568 15.9875 87.9901 16.1005 87.8835C16.2226 87.7836 16.3058 87.6412 16.35 87.4562C16.402 87.27 16.4066 87.0386 16.3637 86.7619C16.2951 86.3192 16.1539 85.9566 15.9401 85.674C15.7262 85.3914 15.4766 85.1913 15.1912 85.0736L15.9685 83.508C16.5138 83.7878 16.9732 84.1659 17.3466 84.6423C17.7291 85.1254 17.9829 85.7701 18.1079 86.5765C18.2048 87.201 18.2005 87.7481 18.0953 88.2178C17.99 88.6875 17.7818 89.0679 17.4707 89.359C17.1688 89.6568 16.7648 89.8449 16.2589 89.9233C15.8952 89.9797 15.5293 89.9433 15.1612 89.8142C14.8022 89.6918 14.496 89.4397 14.2425 89.058C14.1804 89.5453 13.9911 89.943 13.6746 90.2511C13.3581 90.5593 12.9626 90.7501 12.4883 90.8236C11.9586 90.9058 11.4899 90.8327 11.0821 90.6045C10.6822 90.3751 10.3494 90.03 10.0837 89.5692C9.8259 89.1073 9.64857 88.564 9.55174 87.9395Z" fill="#0B0B0B"/>
<path d="M12.6199 100.139L17.4639 98.6223L13.3881 97.9749L13.0653 96.9442L16.0437 94.0875L11.1997 95.6046L10.6115 93.7265L18.7421 91.1801L19.3805 93.2185L15.7919 96.6562L20.7039 97.4441L21.3387 99.471L13.2081 102.017L12.6199 100.139Z" fill="#0B0B0B"/>
<path d="M14.3057 104.484L22.0945 101.03L22.8922 102.83L15.1033 106.283L14.3057 104.484Z" fill="#0B0B0B"/>
<path d="M27.1465 110.731L19.7462 114.953L18.7709 113.244L21.804 111.513L20.1211 108.563L17.0881 110.294L16.1128 108.584L23.5131 104.362L24.4884 106.072L21.622 107.707L23.3049 110.657L26.1712 109.021L27.1465 110.731Z" fill="#0B0B0B"/>
<path d="M25.4279 122.548C24.9808 122.005 24.69 121.431 24.5556 120.826C24.4325 120.223 24.463 119.618 24.6473 119.011C24.8366 118.41 25.1762 117.84 25.6662 117.303L24.9269 116.404L22.2669 118.591L21.0168 117.071L27.5973 111.66L28.8473 113.179L26.2522 115.314L26.9992 116.222C27.6326 115.846 28.2583 115.637 28.8762 115.595C29.4942 115.553 30.0804 115.661 30.6349 115.92C31.2007 116.18 31.697 116.569 32.1239 117.088C32.6321 117.706 32.9351 118.358 33.0331 119.044C33.1311 119.73 33.034 120.405 32.7419 121.07C32.4548 121.741 31.9746 122.354 31.3011 122.907C30.5782 123.502 29.8603 123.87 29.1475 124.011C28.4347 124.151 27.7585 124.091 27.119 123.83C26.4845 123.575 25.9208 123.148 25.4279 122.548ZM26.7887 121.445C27.0733 121.791 27.3904 122.006 27.7402 122.092C28.1012 122.178 28.4758 122.155 28.8638 122.022C29.2631 121.89 29.6605 121.662 30.056 121.337C30.4638 121.001 30.762 120.653 30.9508 120.29C31.1508 119.929 31.2341 119.57 31.2005 119.215C31.1732 118.854 31.0223 118.507 30.7479 118.173C30.4735 117.839 30.1588 117.627 29.804 117.535C29.4604 117.445 29.0921 117.463 28.6989 117.59C28.3109 117.722 27.916 117.954 27.5144 118.284C27.1128 118.615 26.812 118.96 26.6119 119.322C26.4119 119.683 26.3225 120.047 26.3437 120.412C26.371 120.773 26.5194 121.117 26.7887 121.445Z" fill="#0B0B0B"/>
<path d="M32.8965 129.995C32.4116 129.577 32.0506 129.107 31.8133 128.586C31.5813 128.059 31.4587 127.515 31.4454 126.954C31.4434 126.393 31.5364 125.85 31.7243 125.325C31.9235 124.8 32.2059 124.325 32.5715 123.901C32.9161 123.501 33.3227 123.17 33.7911 122.908C34.2595 122.647 34.7606 122.482 35.2944 122.414C35.8395 122.345 36.3904 122.392 36.947 122.555C37.5098 122.723 38.0578 123.037 38.5911 123.496C39.2032 124.024 39.6212 124.611 39.8451 125.258C40.069 125.905 40.1099 126.532 39.9677 127.138L38.1329 126.951C38.2405 126.642 38.2642 126.351 38.2042 126.078C38.1503 125.809 38.0472 125.567 37.8951 125.352C37.7542 125.135 37.5928 124.949 37.411 124.792C37.1929 124.604 36.9641 124.465 36.7249 124.375C36.4969 124.284 36.2667 124.239 36.0341 124.239C35.8016 124.24 35.5719 124.279 35.3453 124.359C35.1298 124.437 34.9226 124.549 34.7235 124.694L36.8507 126.527L35.8245 127.718L33.661 125.854C33.5189 126.08 33.4176 126.32 33.3571 126.574C33.3026 126.833 33.2933 127.089 33.3291 127.342C33.3648 127.594 33.4453 127.838 33.5705 128.073C33.6957 128.307 33.8644 128.516 34.0765 128.699C34.2644 128.861 34.4784 128.992 34.7184 129.093C34.9646 129.2 35.2213 129.257 35.4885 129.266C35.7671 129.274 36.0432 129.211 36.3168 129.077L36.9161 130.845C36.5173 131.05 36.0728 131.137 35.5826 131.105C35.0924 131.074 34.6103 130.959 34.1362 130.762C33.6733 130.564 33.2601 130.308 32.8965 129.995Z" fill="#0B0B0B"/>
<path d="M43.2364 137.305L45.9263 133L42.4107 135.162L41.4948 134.59L41.8963 130.482L39.2065 134.787L37.5375 133.744L42.0524 126.519L43.8638 127.651L43.3772 132.596L47.619 129.997L49.4203 131.123L44.9054 138.348L43.2364 137.305Z" fill="#0B0B0B"/>
<path d="M51.0452 141.259C50.455 141.012 49.9665 140.677 49.5798 140.254C49.2035 139.827 48.9209 139.353 48.732 138.832C48.5535 138.306 48.471 137.768 48.4846 137.218C48.5012 136.662 48.6163 136.129 48.8298 135.62C49.0494 135.096 49.3541 134.638 49.744 134.246C50.1412 133.858 50.5905 133.552 51.0919 133.328C51.6038 133.1 52.1444 132.98 52.7137 132.967C53.2829 132.954 53.8516 133.067 54.4197 133.305C55.0025 133.55 55.482 133.885 55.8583 134.312C56.245 134.734 56.5276 135.208 56.7061 135.734C56.892 136.263 56.9766 136.806 56.9599 137.363C56.9464 137.913 56.836 138.435 56.6287 138.929C56.409 139.453 56.1043 139.911 55.7145 140.302C55.3247 140.694 54.8738 141.004 54.3619 141.232C53.8531 141.452 53.3125 141.572 52.7401 141.592C52.1783 141.608 51.6133 141.497 51.0452 141.259ZM50.6686 136.417C50.5417 136.719 50.4622 137.033 50.4301 137.358C50.4011 137.675 50.425 137.98 50.5019 138.273C50.5861 138.568 50.7295 138.837 50.932 139.078C51.1346 139.319 51.4018 139.509 51.7338 139.648C52.0805 139.793 52.4109 139.854 52.7248 139.829C53.0418 139.797 53.3331 139.703 53.5987 139.545C53.8642 139.388 54.0964 139.186 54.2951 138.939C54.5043 138.689 54.6708 138.416 54.7945 138.121C54.9214 137.818 54.9993 137.508 55.0283 137.191C55.0574 136.873 55.0298 136.567 54.9455 136.271C54.8644 135.968 54.721 135.7 54.5153 135.466C54.3097 135.233 54.0446 135.048 53.72 134.912C53.3732 134.766 53.0429 134.706 52.729 134.73C52.4225 134.758 52.1327 134.849 51.8598 135.003C51.5973 135.154 51.3614 135.354 51.1523 135.605C50.9535 135.851 50.7923 136.122 50.6686 136.417Z" fill="#0B0B0B"/>
<path d="M63.6301 136.439L64.8235 139.7L67.2446 137.211L69.3335 137.657L65.6738 141.293L67.4609 145.969L65.3719 145.523L64.2473 142.399L61.9452 144.791L59.8445 144.343L63.3853 140.804L61.5294 135.991L63.6301 136.439Z" fill="#0B0B0B"/>
<path d="M68.9225 146.068L69.9039 137.605L71.8588 137.831L70.8774 146.295L68.9225 146.068Z" fill="#0B0B0B"/>
<path d="M72.8886 148.248L72.916 144.888L73.396 144.892C73.604 144.893 73.7846 144.815 73.9379 144.656C74.0993 144.489 74.2373 144.234 74.3521 143.891C74.467 143.54 74.5587 143.093 74.6271 142.55C74.6956 141.998 74.745 141.338 74.7752 140.571L74.8673 138.111L80.7711 138.159L80.7157 144.951L81.8797 144.961L81.8523 148.321L80.1243 148.307L80.1377 146.675L74.6178 146.63L74.6045 148.262L72.8886 148.248ZM75.6999 144.91L78.7478 144.935L78.7891 139.871L76.6411 139.854L76.6089 140.862C76.587 141.589 76.5418 142.221 76.4735 142.757C76.4132 143.284 76.3215 143.727 76.1986 144.086C76.0758 144.437 75.9095 144.712 75.6999 144.91Z" fill="#0B0B0B"/>
<path d="M94.0131 142.63C94.1045 143.11 94.0513 143.535 93.8534 143.907C93.6619 144.269 93.3651 144.57 92.9629 144.81C92.5606 145.049 92.1002 145.218 91.5815 145.317L87.5031 146.095L85.9066 137.726L90.5627 136.838C90.9556 136.763 91.3137 136.805 91.6371 136.963C91.9668 137.112 92.2378 137.337 92.4501 137.639C92.6702 137.939 92.814 138.266 92.8815 138.619C92.9564 139.012 92.9262 139.409 92.7909 139.809C92.654 140.202 92.4063 140.526 92.0479 140.782C92.5542 140.832 92.9794 141.011 93.3234 141.32C93.6753 141.628 93.9052 142.064 94.0131 142.63ZM91.9704 142.617C91.9359 142.436 91.8706 142.286 91.7743 142.165C91.6766 142.037 91.5614 141.945 91.4285 141.889C91.302 141.824 91.1601 141.806 91.003 141.836L88.7752 142.261L89.1237 144.088L91.269 143.679C91.434 143.647 91.5719 143.58 91.6826 143.478C91.8012 143.374 91.8871 143.247 91.9402 143.099C91.9933 142.95 92.0034 142.79 91.9704 142.617ZM88.1546 139.008L88.4851 140.741L90.3829 140.378C90.5243 140.352 90.648 140.295 90.7539 140.21C90.8676 140.123 90.9518 140.009 91.0064 139.869C91.0595 139.72 91.0673 139.548 91.0298 139.351C90.9938 139.162 90.9285 139.012 90.8338 138.9C90.7469 138.786 90.6425 138.708 90.5205 138.666C90.397 138.617 90.2645 138.605 90.1231 138.632L88.1546 139.008Z" fill="#0B0B0B"/>
<path d="M96.7356 144.097L94.3136 135.928L96.2005 135.369L98.6224 143.538L96.7356 144.097Z" fill="#0B0B0B"/>
<path d="M101.113 142.838L97.8079 134.985L99.6217 134.222L101.843 139.497L103.006 132.797L104.698 132.085L108.004 139.937L106.19 140.701L103.983 135.458L102.85 142.107L101.113 142.838ZM101.082 133.112C100.647 133.296 100.229 133.385 99.8273 133.38C99.4303 133.365 99.0853 133.267 98.7924 133.087C98.4963 132.899 98.2784 132.639 98.1388 132.307L99.3443 131.8C99.4374 132.021 99.606 132.184 99.8501 132.29C100.091 132.388 100.377 132.367 100.709 132.228C101.041 132.088 101.258 131.901 101.359 131.668C101.468 131.431 101.471 131.191 101.368 130.948L102.574 130.44C102.713 130.772 102.747 131.109 102.674 131.452C102.599 131.788 102.424 132.105 102.15 132.402C101.88 132.69 101.524 132.926 101.082 133.112Z" fill="#0B0B0B"/>
<path d="M112.657 127.444L117.071 134.731L115.387 135.751L113.579 132.764L110.674 134.523L112.482 137.51L110.799 138.529L106.386 131.241L108.069 130.222L109.779 133.045L112.683 131.286L110.974 128.463L112.657 127.444Z" fill="#0B0B0B"/>
<path d="M119.03 133.363L113.594 126.803L115.109 125.547L118.761 129.955L117.937 123.204L119.351 122.033L124.787 128.593L123.271 129.849L119.642 125.469L120.481 132.161L119.03 133.363Z" fill="#0B0B0B"/>
<path d="M129.249 124.102L122.694 118.658L125.017 115.861C125.278 115.547 125.58 115.315 125.924 115.164C126.267 115.001 126.625 114.914 126.999 114.902C127.367 114.885 127.727 114.935 128.078 115.05C128.43 115.165 128.744 115.337 129.021 115.567C129.396 115.879 129.679 116.265 129.869 116.725C130.065 117.178 130.14 117.651 130.094 118.144C130.048 118.625 129.849 119.078 129.496 119.503L128.392 120.832L130.506 122.588L129.249 124.102ZM127.072 119.736L128.099 118.499C128.196 118.382 128.252 118.246 128.266 118.092C128.28 117.937 128.245 117.772 128.161 117.599C128.076 117.425 127.936 117.256 127.739 117.092C127.536 116.923 127.339 116.822 127.148 116.789C126.957 116.744 126.784 116.752 126.631 116.811C126.482 116.865 126.359 116.95 126.262 117.067L125.281 118.249L127.072 119.736Z" fill="#0B0B0B"/>
<path d="M128.559 111.077L129.711 109.293L138.457 111.452L137.364 113.146L135.403 112.666L133.965 114.894L135.217 116.473L134.124 118.167L128.559 111.077ZM134.088 112.203L130.795 111.264L132.995 113.897L134.088 112.203Z" fill="#0B0B0B"/>
<path d="M140.447 107.561C140.128 108.224 139.706 108.758 139.183 109.163C138.663 109.561 138.09 109.8 137.465 109.881L137.284 108.155C137.634 108.111 137.956 107.986 138.25 107.781C138.54 107.566 138.775 107.271 138.956 106.896C139.16 106.471 139.223 106.119 139.144 105.841C139.064 105.563 138.891 105.36 138.625 105.232C138.445 105.145 138.265 105.112 138.087 105.132C137.911 105.146 137.744 105.225 137.586 105.371C137.423 105.505 137.276 105.71 137.144 105.984L136.67 106.968L135.34 106.327L135.819 105.333C135.927 105.109 135.983 104.91 135.987 104.734C135.985 104.556 135.941 104.406 135.857 104.285C135.769 104.154 135.646 104.051 135.488 103.974C135.329 103.898 135.173 103.872 135.019 103.896C134.862 103.909 134.713 103.979 134.572 104.106C134.423 104.23 134.288 104.418 134.167 104.67C133.973 105.074 133.883 105.453 133.899 105.807C133.916 106.161 134.008 106.467 134.176 106.726L132.649 107.575C132.358 107.036 132.194 106.464 132.156 105.86C132.115 105.245 132.271 104.57 132.625 103.835C132.899 103.265 133.212 102.817 133.565 102.49C133.918 102.162 134.305 101.967 134.727 101.903C135.144 101.829 135.584 101.903 136.045 102.125C136.376 102.285 136.657 102.522 136.887 102.837C137.114 103.141 137.223 103.523 137.216 103.981C137.543 103.614 137.925 103.394 138.36 103.32C138.795 103.245 139.229 103.312 139.662 103.52C140.145 103.753 140.49 104.078 140.696 104.498C140.896 104.913 140.974 105.386 140.932 105.916C140.883 106.443 140.721 106.991 140.447 107.561Z" fill="#0B0B0B"/>
<path d="M143.953 98.8272C143.759 99.4371 143.469 99.9534 143.082 100.376C142.691 100.789 142.244 101.113 141.741 101.347C141.233 101.572 140.705 101.702 140.156 101.737C139.6 101.77 139.059 101.703 138.533 101.536C137.992 101.364 137.508 101.101 137.084 100.748C136.661 100.386 136.316 99.9662 136.049 99.4867C135.777 98.9971 135.609 98.4693 135.545 97.9035C135.482 97.3376 135.543 96.7612 135.73 96.1742C135.922 95.5719 136.213 95.0644 136.605 94.6516C136.991 94.2288 137.438 93.9051 137.946 93.6805C138.457 93.4483 138.99 93.3157 139.546 93.2827C140.094 93.2473 140.624 93.3108 141.135 93.4733C141.676 93.6454 142.159 93.9082 142.584 94.2616C143.009 94.615 143.358 95.0365 143.63 95.5261C143.895 96.0133 144.063 96.541 144.134 97.1093C144.2 97.6675 144.139 98.2402 143.953 98.8272ZM139.163 99.6334C139.476 99.7328 139.795 99.7841 140.122 99.7871C140.44 99.7878 140.742 99.7368 141.027 99.6342C141.313 99.524 141.568 99.3573 141.79 99.1341C142.012 98.9109 142.178 98.6278 142.287 98.2847C142.401 97.9264 142.432 97.592 142.379 97.2815C142.319 96.9687 142.199 96.6869 142.018 96.4364C141.838 96.1859 141.616 95.9727 141.353 95.7967C141.085 95.6106 140.798 95.4691 140.493 95.3721C140.181 95.2727 139.865 95.2227 139.546 95.222C139.227 95.2213 138.925 95.2761 138.638 95.3864C138.343 95.4942 138.089 95.6609 137.874 95.8865C137.66 96.1121 137.499 96.3926 137.392 96.728C137.278 97.0864 137.248 97.4208 137.3 97.7312C137.355 98.0341 137.471 98.3146 137.649 98.5727C137.822 98.8208 138.043 99.0379 138.311 99.2239C138.574 99.3999 138.858 99.5364 139.163 99.6334Z" fill="#0B0B0B"/>
<path d="M146.817 85.5084L141.795 84.7704L145.185 87.1242L145.028 88.1928L141.104 89.4719L146.126 90.2099L145.84 92.157L137.41 90.9182L137.721 88.8049L142.447 87.2677L138.365 84.424L138.674 82.3226L147.103 83.5613L146.817 85.5084Z" fill="#0B0B0B"/>
<circle cx="13.5" cy="78.5" r="1.5" fill="#0B0B0B"/>
<circle cx="143.5" cy="78.5" r="1.5" fill="#0B0B0B"/>
</g>
<defs>
<clipPath id="clip0_1_130">
<rect width="156" height="156" fill="white"/>
</clipPath>
</defs>
</svg>
