<?xml version="1.0" standalone="no"?>
<!DOCTYPE svg PUBLIC "-//W3C//DTD SVG 20010904//EN"
 "http://www.w3.org/TR/2001/REC-SVG-20010904/DTD/svg10.dtd">
<svg version="1.0" xmlns="http://www.w3.org/2000/svg"
 width="700.000000pt" height="700.000000pt" viewBox="0 0 700.000000 700.000000"
 preserveAspectRatio="xMidYMid meet">
<metadata>
Created by potrace 1.14, written by Peter Selinger 2001-2017
</metadata>
<g transform="translate(0.000000,700.000000) scale(0.100000,-0.100000)"
fill="#000000" stroke="none">
<path d="M818 6537 c-251 -254 -538 -544 -637 -644 l-181 -183 0 -783 0 -782
638 0 637 0 0 783 0 782 793 0 792 0 0 645 0 645 -792 0 -793 0 -457 -463z"/>
<path d="M4149 6988 c-3 -42 -4 -1255 -1 -1265 3 -10 170 -13 791 -13 l786 0
0 -780 c-1 -429 2 -781 5 -781 3 -1 290 -2 638 -3 l632 -2 0 784 0 784 -289
291 c-159 161 -446 451 -638 645 l-348 352 -788 0 c-622 0 -787 -3 -788 -12z"/>
<path d="M3411 4527 c-340 -30 -647 -226 -805 -512 -16 -27 -32 -54 -36 -60
-4 -5 -24 -58 -44 -116 -128 -376 -36 -782 240 -1064 262 -267 656 -371 1014
-268 383 110 661 415 735 807 14 73 20 261 11 326 -81 546 -571 937 -1115 887z"/>
<path d="M0 2072 l0 -784 298 -299 c163 -165 450 -455 637 -645 l340 -344 793
0 792 0 0 645 0 645 -792 2 -793 3 0 780 0 780 -638 1 -637 0 0 -784z"/>
<path d="M5729 2851 c-1 -4 -3 -355 -3 -781 l-2 -775 -784 -3 c-449 -1 -786
-6 -789 -11 -4 -5 -6 -294 -5 -643 l0 -633 790 -3 789 -2 318 322 c175 178
462 468 638 644 l319 322 -2 783 -3 784 -632 1 c-348 0 -634 -2 -634 -5z"/>
</g>
</svg>
